<svg xmlns="http://www.w3.org/2000/svg" xmlns:xlink="http://www.w3.org/1999/xlink" width="500" zoomAndPan="magnify"
     viewBox="0 0 375 374.999991" height="500" preserveAspectRatio="xMidYMid meet" version="1.0">
    <defs>
        <g/>
        <clipPath id="bfa1d52605">
            <path d="M 31.773438 109 L 188 109 L 188 246.75 L 31.773438 246.75 Z M 31.773438 109 " clip-rule="nonzero"/>
        </clipPath>
        <clipPath id="d0460cbb09">
            <path d="M 187 37.5 L 343.023438 37.5 L 343.023438 175 L 187 175 Z M 187 37.5 " clip-rule="nonzero"/>
        </clipPath>
    </defs>
    <g clip-path="url(#bfa1d52605)">
        <path fill="#0652e9"
              d="M 136.644531 206.824219 L 136.644531 225.78125 L 50.792969 185.894531 L 50.792969 170.511719 L 136.644531 130.628906 L 136.644531 149.589844 L 71.71875 178.023438 L 71.71875 178.382812 Z M 187.628906 109.5625 L 44.058594 109.5625 C 37.28125 109.5625 31.785156 115.054688 31.785156 121.835938 L 31.785156 234.574219 C 31.785156 241.351562 37.28125 246.84375 44.058594 246.84375 L 147.777344 246.84375 L 187.628906 109.5625 "
              fill-opacity="1" fill-rule="nonzero"/>
    </g>
    <g clip-path="url(#d0460cbb09)">
        <path fill="#62e1e9"
              d="M 324.238281 114.4375 L 238.386719 153.785156 L 238.386719 134.824219 L 304.742188 106.390625 L 304.742188 106.03125 L 238.386719 77.589844 L 238.386719 58.632812 L 324.238281 97.984375 Z M 227.488281 37.570312 L 187.628906 174.851562 L 330.972656 174.851562 C 337.75 174.851562 343.242188 169.359375 343.242188 162.578125 L 343.242188 49.839844 C 343.242188 43.0625 337.75 37.570312 330.972656 37.570312 L 227.488281 37.570312 "
              fill-opacity="1" fill-rule="nonzero"/>
    </g>
</svg>
