<svg xmlns="http://www.w3.org/2000/svg" xmlns:xlink="http://www.w3.org/1999/xlink" width="500" zoomAndPan="magnify"
     viewBox="0 0 375 374.999991" height="500" preserveAspectRatio="xMidYMid meet" version="1.0">
    <defs>
        <g/>
        <clipPath id="61bec6e658">
            <path d="M 31.773438 109 L 188 109 L 188 246.75 L 31.773438 246.75 Z M 31.773438 109 " clip-rule="nonzero"/>
        </clipPath>
        <clipPath id="1de73b081f">
            <path d="M 187 37.5 L 343.023438 37.5 L 343.023438 175 L 187 175 Z M 187 37.5 " clip-rule="nonzero"/>
        </clipPath>
    </defs>
    <g clip-path="url(#61bec6e658)">
        <path fill="#6366f1"
              d="M 136.644531 206.824219 L 136.644531 225.78125 L 50.792969 185.894531 L 50.792969 170.511719 L 136.644531 130.628906 L 136.644531 149.589844 L 71.71875 178.023438 L 71.71875 178.382812 Z M 187.628906 109.5625 L 44.058594 109.5625 C 37.28125 109.5625 31.785156 115.054688 31.785156 121.835938 L 31.785156 234.574219 C 31.785156 241.351562 37.28125 246.84375 44.058594 246.84375 L 147.777344 246.84375 L 187.628906 109.5625 "
              fill-opacity="1" fill-rule="nonzero"/>
    </g>
    <g clip-path="url(#1de73b081f)">
        <path fill="#38bdf8"
              d="M 324.238281 114.4375 L 238.386719 153.785156 L 238.386719 134.824219 L 304.742188 106.390625 L 304.742188 106.03125 L 238.386719 77.589844 L 238.386719 58.632812 L 324.238281 97.984375 Z M 227.488281 37.570312 L 187.628906 174.851562 L 330.972656 174.851562 C 337.75 174.851562 343.242188 169.359375 343.242188 162.578125 L 343.242188 49.839844 C 343.242188 43.0625 337.75 37.570312 330.972656 37.570312 L 227.488281 37.570312 "
              fill-opacity="1" fill-rule="nonzero"/>
    </g>
    <g fill="#1e293b" fill-opacity="1">
        <g transform="translate(9.147474, 297.153496)">
            <g>
                <path
                    d="M 2.65625 0 L 2.65625 -27 L 11.5625 -27 C 13.425781 -27 15.175781 -26.644531 16.8125 -25.9375 C 18.445312 -25.238281 19.878906 -24.269531 21.109375 -23.03125 C 22.335938 -21.800781 23.300781 -20.367188 24 -18.734375 C 24.707031 -17.109375 25.0625 -15.363281 25.0625 -13.5 C 25.0625 -11.632812 24.707031 -9.882812 24 -8.25 C 23.300781 -6.625 22.335938 -5.191406 21.109375 -3.953125 C 19.878906 -2.722656 18.445312 -1.753906 16.8125 -1.046875 C 15.175781 -0.347656 13.425781 0 11.5625 0 Z M 8.59375 -5.265625 L 11.515625 -5.265625 C 12.960938 -5.265625 14.253906 -5.625 15.390625 -6.34375 C 16.523438 -7.0625 17.429688 -8.039062 18.109375 -9.28125 C 18.785156 -10.53125 19.125 -11.9375 19.125 -13.5 C 19.125 -15.0625 18.785156 -16.460938 18.109375 -17.703125 C 17.429688 -18.953125 16.523438 -19.9375 15.390625 -20.65625 C 14.253906 -21.375 12.960938 -21.734375 11.515625 -21.734375 L 8.59375 -21.734375 Z M 8.59375 -5.265625 "/>
            </g>
        </g>
    </g>
    <g fill="#1e293b" fill-opacity="1">
        <g transform="translate(37.461451, 297.153496)">
            <g>
                <path
                    d="M 19.171875 0 L 17.5 -5.078125 L 7.421875 -5.078125 L 5.765625 0 L -0.578125 0 L 9.140625 -27 L 15.796875 -27 L 25.515625 0 Z M 9 -10.03125 L 15.9375 -10.03125 L 12.46875 -20.75 Z M 9 -10.03125 "/>
            </g>
        </g>
    </g>
    <g fill="#1e293b" fill-opacity="1">
        <g transform="translate(63.975433, 297.153496)">
            <g>
                <path
                    d="M 16.734375 -11.109375 L 24.296875 0 L 17.640625 0 L 10.984375 -10.4375 L 8.59375 -10.4375 L 8.59375 0 L 2.65625 0 L 2.65625 -27 L 14.125 -27 C 15.6875 -27 17.066406 -26.628906 18.265625 -25.890625 C 19.460938 -25.160156 20.414062 -24.164062 21.125 -22.90625 C 21.832031 -21.644531 22.1875 -20.25 22.1875 -18.71875 C 22.1875 -16.882812 21.675781 -15.273438 20.65625 -13.890625 C 19.632812 -12.515625 18.328125 -11.585938 16.734375 -11.109375 Z M 13.234375 -15.34375 C 14.191406 -15.34375 14.976562 -15.640625 15.59375 -16.234375 C 16.207031 -16.835938 16.515625 -17.609375 16.515625 -18.546875 C 16.515625 -19.472656 16.207031 -20.234375 15.59375 -20.828125 C 14.976562 -21.429688 14.191406 -21.734375 13.234375 -21.734375 L 8.59375 -21.734375 L 8.59375 -15.34375 Z M 13.234375 -15.34375 "/>
            </g>
        </g>
    </g>
    <g fill="#1e293b" fill-opacity="1">
        <g transform="translate(89.634419, 297.153496)">
            <g>
                <path
                    d="M 19.53125 0 L 9.453125 -12.328125 L 8.59375 -12.328125 L 8.59375 0 L 2.65625 0 L 2.65625 -27 L 8.59375 -27 L 8.59375 -17.453125 L 9.625 -17.453125 L 18.453125 -27 L 26.09375 -27 L 14.4375 -14.984375 L 27.453125 0 Z M 19.53125 0 "/>
            </g>
        </g>
    </g>
    <g fill="#1e293b" fill-opacity="1">
        <g transform="translate(117.723391, 297.153496)">
            <g>
                <path
                    d="M 15.53125 0.359375 C 13.601562 0.359375 11.804688 0 10.140625 -0.71875 C 8.484375 -1.4375 7.015625 -2.429688 5.734375 -3.703125 C 4.460938 -4.984375 3.46875 -6.457031 2.75 -8.125 C 2.03125 -9.789062 1.671875 -11.582031 1.671875 -13.5 C 1.671875 -15.414062 2.03125 -17.207031 2.75 -18.875 C 3.46875 -20.539062 4.460938 -22.007812 5.734375 -23.28125 C 7.015625 -24.5625 8.484375 -25.5625 10.140625 -26.28125 C 11.804688 -27 13.601562 -27.359375 15.53125 -27.359375 C 17.445312 -27.359375 19.242188 -27 20.921875 -26.28125 C 22.597656 -25.5625 24.066406 -24.5625 25.328125 -23.28125 C 26.585938 -22.007812 27.578125 -20.539062 28.296875 -18.875 C 29.023438 -17.207031 29.390625 -15.414062 29.390625 -13.5 C 29.390625 -11.582031 29.023438 -9.789062 28.296875 -8.125 C 27.578125 -6.457031 26.585938 -4.984375 25.328125 -3.703125 C 24.066406 -2.429688 22.597656 -1.4375 20.921875 -0.71875 C 19.242188 0 17.445312 0.359375 15.53125 0.359375 Z M 15.53125 -5.4375 C 17.050781 -5.4375 18.421875 -5.789062 19.640625 -6.5 C 20.859375 -7.207031 21.816406 -8.164062 22.515625 -9.375 C 23.222656 -10.59375 23.578125 -11.96875 23.578125 -13.5 C 23.578125 -15.03125 23.222656 -16.398438 22.515625 -17.609375 C 21.816406 -18.828125 20.859375 -19.789062 19.640625 -20.5 C 18.421875 -21.207031 17.050781 -21.5625 15.53125 -21.5625 C 14.03125 -21.5625 12.671875 -21.207031 11.453125 -20.5 C 10.234375 -19.789062 9.269531 -18.828125 8.5625 -17.609375 C 7.863281 -16.398438 7.515625 -15.03125 7.515625 -13.5 C 7.515625 -11.96875 7.863281 -10.59375 8.5625 -9.375 C 9.269531 -8.164062 10.234375 -7.207031 11.453125 -6.5 C 12.671875 -5.789062 14.03125 -5.4375 15.53125 -5.4375 Z M 15.53125 -5.4375 "/>
            </g>
        </g>
    </g>
    <g fill="#1e293b" fill-opacity="1">
        <g transform="translate(150.402359, 297.153496)">
            <g/>
        </g>
    </g>
    <g fill="#1e293b" fill-opacity="1">
        <g transform="translate(162.786353, 297.153496)">
            <g>
                <path
                    d="M 15.53125 0.359375 C 13.601562 0.359375 11.804688 0 10.140625 -0.71875 C 8.484375 -1.4375 7.015625 -2.429688 5.734375 -3.703125 C 4.460938 -4.984375 3.46875 -6.457031 2.75 -8.125 C 2.03125 -9.789062 1.671875 -11.582031 1.671875 -13.5 C 1.671875 -15.414062 2.03125 -17.207031 2.75 -18.875 C 3.46875 -20.539062 4.460938 -22.007812 5.734375 -23.28125 C 7.015625 -24.5625 8.484375 -25.5625 10.140625 -26.28125 C 11.804688 -27 13.601562 -27.359375 15.53125 -27.359375 C 18.195312 -27.359375 20.625 -26.675781 22.8125 -25.3125 C 25 -23.945312 26.664062 -22.15625 27.8125 -19.9375 L 22.6875 -17.28125 C 22.019531 -18.570312 21.054688 -19.609375 19.796875 -20.390625 C 18.535156 -21.171875 17.113281 -21.5625 15.53125 -21.5625 C 14.03125 -21.5625 12.671875 -21.207031 11.453125 -20.5 C 10.234375 -19.789062 9.269531 -18.828125 8.5625 -17.609375 C 7.863281 -16.398438 7.515625 -15.03125 7.515625 -13.5 C 7.515625 -11.96875 7.863281 -10.59375 8.5625 -9.375 C 9.269531 -8.164062 10.234375 -7.207031 11.453125 -6.5 C 12.671875 -5.789062 14.03125 -5.4375 15.53125 -5.4375 C 17.113281 -5.4375 18.535156 -5.828125 19.796875 -6.609375 C 21.054688 -7.390625 22.019531 -8.425781 22.6875 -9.71875 L 27.8125 -7.0625 C 26.664062 -4.875 25 -3.085938 22.8125 -1.703125 C 20.625 -0.328125 18.195312 0.359375 15.53125 0.359375 Z M 15.53125 0.359375 "/>
            </g>
        </g>
    </g>
    <g fill="#1e293b" fill-opacity="1">
        <g transform="translate(193.350327, 297.153496)">
            <g>
                <path
                    d="M 19.125 -21.78125 L 8.8125 -21.78125 L 8.8125 -16.109375 L 17.640625 -16.109375 L 17.640625 -10.890625 L 8.8125 -10.890625 L 8.8125 -5.21875 L 19.125 -5.21875 L 19.125 0 L 2.875 0 L 2.875 -27 L 19.125 -27 Z M 19.125 -21.78125 "/>
            </g>
        </g>
    </g>
    <g fill="#1e293b" fill-opacity="1">
        <g transform="translate(215.904319, 297.153496)">
            <g>
                <path
                    d="M 19.53125 0 L 9.453125 -12.328125 L 8.59375 -12.328125 L 8.59375 0 L 2.65625 0 L 2.65625 -27 L 8.59375 -27 L 8.59375 -17.453125 L 9.625 -17.453125 L 18.453125 -27 L 26.09375 -27 L 14.4375 -14.984375 L 27.453125 0 Z M 19.53125 0 "/>
            </g>
        </g>
    </g>
    <g fill="#1e293b" fill-opacity="1">
        <g transform="translate(243.99329, 297.153496)">
            <g>
                <path
                    d="M 15.53125 0.359375 C 13.601562 0.359375 11.804688 0 10.140625 -0.71875 C 8.484375 -1.4375 7.015625 -2.429688 5.734375 -3.703125 C 4.460938 -4.984375 3.46875 -6.457031 2.75 -8.125 C 2.03125 -9.789062 1.671875 -11.582031 1.671875 -13.5 C 1.671875 -15.414062 2.03125 -17.207031 2.75 -18.875 C 3.46875 -20.539062 4.460938 -22.007812 5.734375 -23.28125 C 7.015625 -24.5625 8.484375 -25.5625 10.140625 -26.28125 C 11.804688 -27 13.601562 -27.359375 15.53125 -27.359375 C 17.445312 -27.359375 19.242188 -27 20.921875 -26.28125 C 22.597656 -25.5625 24.066406 -24.5625 25.328125 -23.28125 C 26.585938 -22.007812 27.578125 -20.539062 28.296875 -18.875 C 29.023438 -17.207031 29.390625 -15.414062 29.390625 -13.5 C 29.390625 -11.582031 29.023438 -9.789062 28.296875 -8.125 C 27.578125 -6.457031 26.585938 -4.984375 25.328125 -3.703125 C 24.066406 -2.429688 22.597656 -1.4375 20.921875 -0.71875 C 19.242188 0 17.445312 0.359375 15.53125 0.359375 Z M 15.53125 -5.4375 C 17.050781 -5.4375 18.421875 -5.789062 19.640625 -6.5 C 20.859375 -7.207031 21.816406 -8.164062 22.515625 -9.375 C 23.222656 -10.59375 23.578125 -11.96875 23.578125 -13.5 C 23.578125 -15.03125 23.222656 -16.398438 22.515625 -17.609375 C 21.816406 -18.828125 20.859375 -19.789062 19.640625 -20.5 C 18.421875 -21.207031 17.050781 -21.5625 15.53125 -21.5625 C 14.03125 -21.5625 12.671875 -21.207031 11.453125 -20.5 C 10.234375 -19.789062 9.269531 -18.828125 8.5625 -17.609375 C 7.863281 -16.398438 7.515625 -15.03125 7.515625 -13.5 C 7.515625 -11.96875 7.863281 -10.59375 8.5625 -9.375 C 9.269531 -8.164062 10.234375 -7.207031 11.453125 -6.5 C 12.671875 -5.789062 14.03125 -5.4375 15.53125 -5.4375 Z M 15.53125 -5.4375 "/>
            </g>
        </g>
    </g>
    <g fill="#1e293b" fill-opacity="1">
        <g transform="translate(276.672258, 297.153496)">
            <g>
                <path
                    d="M 18.90625 -27 L 25.515625 -27 L 15.796875 0 L 9.140625 0 L -0.578125 -27 L 6.03125 -27 L 12.46875 -7.6875 Z M 18.90625 -27 "/>
            </g>
        </g>
    </g>
    <g fill="#1e293b" fill-opacity="1">
        <g transform="translate(303.186249, 297.153496)">
            <g>
                <path
                    d="M 10.984375 0.359375 C 8.609375 0.359375 6.519531 -0.222656 4.71875 -1.390625 C 2.925781 -2.566406 1.59375 -3.992188 0.71875 -5.671875 L 5.625 -8.734375 C 6.132812 -7.679688 6.851562 -6.832031 7.78125 -6.1875 C 8.71875 -5.539062 9.800781 -5.21875 11.03125 -5.21875 C 12.070312 -5.21875 12.882812 -5.441406 13.46875 -5.890625 C 14.0625 -6.335938 14.359375 -6.9375 14.359375 -7.6875 C 14.359375 -8.46875 14.054688 -9.097656 13.453125 -9.578125 C 12.859375 -10.066406 12.085938 -10.472656 11.140625 -10.796875 C 10.191406 -11.128906 9.1875 -11.484375 8.125 -11.859375 C 7.0625 -12.234375 6.054688 -12.71875 5.109375 -13.3125 C 4.160156 -13.914062 3.382812 -14.695312 2.78125 -15.65625 C 2.1875 -16.613281 1.890625 -17.859375 1.890625 -19.390625 C 1.890625 -21.191406 2.304688 -22.675781 3.140625 -23.84375 C 3.984375 -25.019531 5.070312 -25.898438 6.40625 -26.484375 C 7.75 -27.066406 9.125 -27.359375 10.53125 -27.359375 C 12.207031 -27.359375 13.765625 -27.003906 15.203125 -26.296875 C 16.648438 -25.597656 17.867188 -24.675781 18.859375 -23.53125 L 14.890625 -19.75 C 14.234375 -20.5 13.53125 -21.078125 12.78125 -21.484375 C 12.03125 -21.890625 11.265625 -22.09375 10.484375 -22.09375 C 9.765625 -22.09375 9.148438 -21.910156 8.640625 -21.546875 C 8.128906 -21.191406 7.875 -20.625 7.875 -19.84375 C 7.875 -19.0625 8.171875 -18.445312 8.765625 -18 C 9.367188 -17.550781 10.144531 -17.160156 11.09375 -16.828125 C 12.039062 -16.492188 13.035156 -16.132812 14.078125 -15.75 C 15.128906 -15.363281 16.128906 -14.851562 17.078125 -14.21875 C 18.023438 -13.59375 18.796875 -12.757812 19.390625 -11.71875 C 19.992188 -10.6875 20.296875 -9.332031 20.296875 -7.65625 C 20.296875 -5.96875 19.867188 -4.523438 19.015625 -3.328125 C 18.160156 -2.128906 17.023438 -1.210938 15.609375 -0.578125 C 14.203125 0.046875 12.660156 0.359375 10.984375 0.359375 Z M 10.984375 0.359375 "/>
            </g>
        </g>
    </g>
    <g fill="#1e293b" fill-opacity="1">
        <g transform="translate(326.100226, 297.153496)">
            <g>
                <path
                    d="M 19.53125 0 L 9.453125 -12.328125 L 8.59375 -12.328125 L 8.59375 0 L 2.65625 0 L 2.65625 -27 L 8.59375 -27 L 8.59375 -17.453125 L 9.625 -17.453125 L 18.453125 -27 L 26.09375 -27 L 14.4375 -14.984375 L 27.453125 0 Z M 19.53125 0 "/>
            </g>
        </g>
    </g>
    <g fill="#1e293b" fill-opacity="1">
        <g transform="translate(354.189198, 297.153496)">
            <g>
                <path d="M 2.875 0 L 2.875 -27 L 8.8125 -27 L 8.8125 0 Z M 2.875 0 "/>
            </g>
        </g>
    </g>
</svg>
