<svg width="295" height="156" viewBox="0 0 295 156" fill="none" xmlns="http://www.w3.org/2000/svg">
    <g filter="url(#filter0_d_1_4329)">
        <path
            d="M337.114 44.4531C426.277 114.574 441.714 243.7 371.593 332.864C301.471 422.027 172.346 437.464 83.1821 367.343C-5.98138 297.221 -21.4181 168.096 48.7031 78.9321C118.824 -10.2314 247.95 -25.6681 337.114 44.4531Z"
            fill="url(#paint0_linear_1_4329)"/>
        <path
            d="M240.282 26.6891C246.023 28.8976 248.232 34.6253 245.217 39.4821C242.202 44.3389 235.104 46.4858 229.363 44.2773C223.622 42.0687 221.413 36.3411 224.428 31.4842C227.443 26.6274 234.541 24.4805 240.282 26.6891Z"
            fill="url(#paint1_linear_1_4329)"/>
        <path
            d="M111.336 34.2526C113.357 37.1697 108.893 43.7631 101.366 48.9793C93.8382 54.1956 86.0972 56.0594 84.0758 53.1423C82.0544 50.2252 86.5181 43.6318 94.0457 38.4156C101.573 33.1993 109.314 31.3355 111.336 34.2526Z"
            fill="url(#paint2_linear_1_4329)"/>
        <path
            d="M56.2829 65.5376C58.8153 67.3619 54.8319 77.22 47.3857 87.5562C39.9396 97.8924 31.8504 104.793 29.318 102.968C26.7856 101.144 30.769 91.2859 38.2151 80.9497C45.6613 70.6135 53.7505 63.7133 56.2829 65.5376Z"
            fill="#3E404E"/>
        <path
            d="M59.6099 67.9344C63.9798 71.0825 61.486 82.0136 54.0398 92.3498C46.5936 102.686 37.0148 108.513 32.6449 105.365C28.2751 102.217 30.7689 91.2859 38.215 80.9497C45.6612 70.6135 55.24 64.7864 59.6099 67.9344Z"
            fill="#3E404E"/>
        <path
            d="M50.7838 69.1428C51.5207 69.6736 47.8904 75.9723 42.6754 83.2115C37.4603 90.4506 32.6354 95.8887 31.8985 95.3579C31.1617 94.8271 34.792 88.5283 40.007 81.2892C45.2221 74.0501 50.047 68.6119 50.7838 69.1428Z"
            fill="#111321"/>
        <path
            d="M310.976 23.0784C309.699 25.53 300.551 23.2902 290.545 18.0757C280.539 12.8611 273.463 6.64651 274.74 4.19492C276.018 1.74333 285.165 3.98314 295.172 9.19768C305.178 14.4122 312.254 20.6268 310.976 23.0784Z"
            fill="url(#paint3_linear_1_4329)"/>
        <path
            d="M309.298 26.2993C307.093 30.5297 297.194 29.7319 287.188 24.5174C277.182 19.3029 270.857 11.6462 273.062 7.41577C275.266 3.18533 285.165 3.9831 295.171 9.19763C305.178 14.4122 311.502 22.0688 309.298 26.2993Z"
            fill="url(#paint4_linear_1_4329)"/>
        <path
            d="M307.117 18.7154C306.745 19.4287 300.762 17.0464 293.754 13.3943C286.746 9.74218 281.366 6.20332 281.738 5.48999C282.11 4.77667 288.092 7.159 295.1 10.8111C302.109 14.4632 307.488 18.002 307.117 18.7154Z"
            fill="#101220"/>
        <path
            d="M238.77 159.202C243.922 168.815 240.307 180.785 230.694 185.938C221.08 191.091 209.11 187.475 203.957 177.862C198.805 168.249 202.42 156.278 212.034 151.126C221.647 145.973 233.617 149.588 238.77 159.202Z"
            fill="#2F313F"/>
        <path
            d="M161.4 48.3041C164.492 54.072 159.205 62.925 149.592 68.0778C139.979 73.2306 129.68 72.732 126.588 66.9642C123.497 61.1963 128.783 52.3433 138.396 47.1905C148.009 42.0377 158.309 42.5363 161.4 48.3041Z"
            fill="#3F414F"/>
    </g>
    <defs>
        <filter id="filter0_d_1_4329" x="0.75" y="0.5" width="427.5" height="418.796" filterUnits="userSpaceOnUse"
                color-interpolation-filters="sRGB">
            <feFlood flood-opacity="0" result="BackgroundImageFix"/>
            <feColorMatrix in="SourceAlpha" type="matrix" values="0 0 0 0 0 0 0 0 0 0 0 0 0 0 0 0 0 0 127 0"
                           result="hardAlpha"/>
            <feOffset dy="4"/>
            <feGaussianBlur stdDeviation="2"/>
            <feColorMatrix type="matrix" values="0 0 0 0 0 0 0 0 0 0 0 0 0 0 0 0 0 0 0.25 0"/>
            <feBlend mode="normal" in2="BackgroundImageFix" result="effect1_dropShadow_1_4329"/>
            <feBlend mode="normal" in="SourceGraphic" in2="effect1_dropShadow_1_4329" result="shape"/>
        </filter>
        <linearGradient id="paint0_linear_1_4329" x1="48.7034" y1="78.9322" x2="371.593" y2="332.864"
                        gradientUnits="userSpaceOnUse">
            <stop stop-color="#404250"/>
            <stop offset="1" stop-color="#090B19"/>
        </linearGradient>
        <linearGradient id="paint1_linear_1_4329" x1="224.428" y1="31.4839" x2="243.017" y2="43.0245"
                        gradientUnits="userSpaceOnUse">
            <stop stop-color="#080A18"/>
            <stop offset="1" stop-color="#4C4E5C"/>
        </linearGradient>
        <linearGradient id="paint2_linear_1_4329" x1="94.0456" y1="38.4152" x2="101.366" y2="48.979"
                        gradientUnits="userSpaceOnUse">
            <stop stop-color="#161826"/>
            <stop offset="1" stop-color="#4C4E5C"/>
        </linearGradient>
        <linearGradient id="paint3_linear_1_4329" x1="272.774" y1="2.74656" x2="311.992" y2="19.6786"
                        gradientUnits="userSpaceOnUse">
            <stop stop-color="#2E303E"/>
            <stop offset="1" stop-color="#292B39"/>
        </linearGradient>
        <linearGradient id="paint4_linear_1_4329" x1="269.669" y1="6.15607" x2="310.389" y2="25.5276"
                        gradientUnits="userSpaceOnUse">
            <stop stop-color="#2E303E"/>
            <stop offset="1" stop-color="#292B39"/>
        </linearGradient>
    </defs>
</svg>

