<svg width="139" height="170" viewBox="0 0 139 170" fill="none" xmlns="http://www.w3.org/2000/svg">
    <path d="M166.3 51.077C184.974 93.7684 165.504 143.515 122.812 162.188C80.1208 180.862 30.3747 161.391 11.701 118.7C-6.97259 76.0087 12.4977 26.2626 55.1891 7.58897C97.8805 -11.0846 147.627 8.38561 166.3 51.077Z" fill="url(#paint0_linear_1_1796)"/>
    <path d="M55.4168 60.2206C58.2902 66.7883 55.2955 74.4418 48.7278 77.3152C42.1601 80.1886 34.5066 77.1939 31.6331 70.6262C28.7597 64.0586 31.7545 56.4051 38.3221 53.5317C44.8898 50.6583 52.5433 53.653 55.4168 60.2206Z" fill="url(#paint1_linear_1_1796)"/>
    <path d="M134.763 24.3795C136.414 26.7218 136.058 29.8162 133.966 31.291C131.875 32.7658 128.841 32.0627 127.189 29.7204C125.537 27.3782 125.894 24.2838 127.985 22.809C130.077 21.3341 133.111 22.0373 134.763 24.3795Z" fill="url(#paint2_linear_1_1796)"/>
    <path d="M86.5355 3.56741C86.7012 5.01582 83.8055 6.53669 80.0678 6.96437C76.3301 7.39205 73.1657 6.56459 72.9999 5.11618C72.8342 3.66777 75.7299 2.1469 79.4676 1.71922C83.2053 1.29154 86.3697 2.119 86.5355 3.56741Z" fill="url(#paint3_linear_1_1796)"/>
    <path d="M118.204 133.362C120.017 142.802 112.407 152.198 101.208 154.349C90.0079 156.5 79.4591 150.591 77.6462 141.152C75.8333 131.712 83.4427 122.316 94.6423 120.165C105.842 118.014 116.391 123.923 118.204 133.362Z" fill="url(#paint4_linear_1_1796)"/>
    <path d="M60.5324 4.21027C61.0952 5.36223 57.7398 8.15831 53.038 10.4555C48.3361 12.7527 44.0683 13.6811 43.5055 12.5291C42.9426 11.3771 46.298 8.58107 50.9998 6.28389C55.7017 3.9867 59.9696 3.05832 60.5324 4.21027Z" fill="#9E0E17"/>
    <path d="M61.2716 5.7236C62.2427 7.7114 59.2185 11.1851 54.5166 13.4822C49.8148 15.7794 45.2159 16.0302 44.2447 14.0424C43.2735 12.0546 46.2978 8.58094 50.9996 6.28376C55.7015 3.98659 60.3004 3.7358 61.2716 5.7236Z" fill="#9E0E17"/>
    <path d="M57.8413 4.44815C58.005 4.78333 55.4683 6.35927 52.1752 7.96812C48.8822 9.57698 46.08 10.6095 45.9162 10.2743C45.7524 9.93914 48.2892 8.3632 51.5822 6.75435C54.8752 5.1455 57.6775 4.11298 57.8413 4.44815Z" fill="#580509"/>
    <path d="M1.70795 97.3262C3.70394 96.7184 7.33304 102.83 9.81377 110.977C12.2945 119.123 12.6875 126.22 10.6915 126.828C8.69547 127.436 5.06638 121.324 2.58565 113.178C0.104921 105.031 -0.288038 97.934 1.70795 97.3262Z" fill="url(#paint5_linear_1_1796)"/>
    <path d="M4.33034 96.528C7.77454 95.4793 12.5776 101.233 15.0583 109.38C17.539 117.527 16.7579 124.981 13.3137 126.03C9.8695 127.079 5.06643 121.325 2.58574 113.178C0.105057 105.031 0.886141 97.5768 4.33034 96.528Z" fill="url(#paint6_linear_1_1796)"/>
    <path d="M1.39856 101.711C1.97934 101.535 3.85863 106.016 5.59608 111.722C7.33353 117.428 8.2712 122.196 7.69043 122.373C7.10965 122.55 5.23036 118.068 3.49291 112.362C1.75546 106.657 0.817792 101.888 1.39856 101.711Z" fill="#470609"/>
    <path d="M72.8718 167.678C72.9499 166.573 79.9121 165.815 88.4222 165.984C96.9323 166.153 103.768 167.185 103.69 168.29C103.612 169.395 96.6493 170.154 88.1392 169.985C79.6291 169.816 72.7936 168.783 72.8718 167.678Z" fill="url(#paint7_linear_1_1796)"/>
    <path d="M72.9741 166.227C73.109 164.32 80.1171 162.912 88.6271 163.081C97.1372 163.25 103.927 164.932 103.792 166.839C103.657 168.746 96.6489 170.155 88.1388 169.986C79.6288 169.817 72.8393 168.134 72.9741 166.227Z" fill="url(#paint8_linear_1_1796)"/>
    <path d="M76.9137 168.594C76.9364 168.272 81.7864 168.107 87.7465 168.226C93.7066 168.344 98.5197 168.701 98.497 169.022C98.4743 169.344 93.6242 169.509 87.6642 169.39C81.7041 169.272 76.8909 168.915 76.9137 168.594Z" fill="#150303"/>
    <path d="M108.426 73.5367C108.426 78.0171 104.794 81.6492 100.313 81.6492C95.8326 81.6492 92.2004 78.0171 92.2004 73.5367C92.2004 69.0562 95.8326 65.4241 100.313 65.4241C104.794 65.4241 108.426 69.0562 108.426 73.5367Z" fill="#780B12"/>
    <path d="M38.3319 132.814C36.2952 134.569 32.2735 133.239 29.3492 129.845C26.4249 126.45 25.7053 122.276 27.7419 120.521C29.7786 118.767 33.8003 120.096 36.7247 123.49C39.649 126.885 40.3686 131.059 38.3319 132.814Z" fill="#650B12"/>
    <path d="M101.935 18.3711C101.935 21.0593 98.3027 23.2386 93.8223 23.2386C89.3418 23.2386 85.7097 21.0593 85.7097 18.3711C85.7097 15.6828 89.3418 13.5035 93.8223 13.5035C98.3027 13.5035 101.935 15.6828 101.935 18.3711Z" fill="#9B0E17"/>
    <path d="M149.811 121.012C151.579 123.038 150.275 127.068 146.899 130.014C143.523 132.959 139.353 133.705 137.586 131.68C135.819 129.654 137.123 125.624 140.499 122.678C143.875 119.733 148.044 118.987 149.811 121.012Z" fill="#4B090E"/>
    <defs>
        <linearGradient id="paint0_linear_1_1796" x1="55.1891" y1="7.5892" x2="122.812" y2="162.188" gradientUnits="userSpaceOnUse">
            <stop stop-color="#A00F18"/>
            <stop offset="1" stop-color="#240508"/>
        </linearGradient>
        <linearGradient id="paint1_linear_1_1796" x1="38.3221" y1="53.5317" x2="48.7277" y2="77.3153" gradientUnits="userSpaceOnUse">
            <stop stop-color="#1F080C"/>
            <stop offset="1" stop-color="#88111B"/>
        </linearGradient>
        <linearGradient id="paint2_linear_1_1796" x1="127.985" y1="22.809" x2="133.967" y2="31.2909" gradientUnits="userSpaceOnUse">
            <stop stop-color="#1C070C"/>
            <stop offset="1" stop-color="#AF131F"/>
        </linearGradient>
        <linearGradient id="paint3_linear_1_1796" x1="79.4675" y1="1.71948" x2="80.0677" y2="6.96463" gradientUnits="userSpaceOnUse">
            <stop stop-color="#40090F"/>
            <stop offset="1" stop-color="#AE131E"/>
        </linearGradient>
        <linearGradient id="paint4_linear_1_1796" x1="94.6423" y1="120.165" x2="101.207" y2="154.349" gradientUnits="userSpaceOnUse">
            <stop stop-color="#16070B"/>
            <stop offset="1" stop-color="#5C0C13"/>
        </linearGradient>
        <linearGradient id="paint5_linear_1_1796" x1="11.0742" y1="127.08" x2="2.96158" y2="96.2517" gradientUnits="userSpaceOnUse">
            <stop stop-color="#5D090F"/>
            <stop offset="1" stop-color="#720B12"/>
        </linearGradient>
        <linearGradient id="paint6_linear_1_1796" x1="13.8998" y1="126.219" x2="5.28838" y2="95.5109" gradientUnits="userSpaceOnUse">
            <stop stop-color="#5D090F"/>
            <stop offset="1" stop-color="#720B12"/>
        </linearGradient>
        <linearGradient id="paint7_linear_1_1796" x1="105.181" y1="167.642" x2="72.8138" y2="169.286" gradientUnits="userSpaceOnUse">
            <stop stop-color="#260508"/>
            <stop offset="1" stop-color="#2F0609"/>
        </linearGradient>
        <linearGradient id="paint8_linear_1_1796" x1="105.318" y1="165.7" x2="72.8345" y2="165.692" gradientUnits="userSpaceOnUse">
            <stop stop-color="#260508"/>
            <stop offset="1" stop-color="#2F0609"/>
        </linearGradient>
    </defs>
</svg>
