<svg width="51" height="50" viewBox="0 0 51 50" fill="none" xmlns="http://www.w3.org/2000/svg">
    <path
        d="M48.3059 15.3061C53.7213 27.6866 48.0749 42.113 35.6944 47.5283C23.3139 52.9437 8.88749 47.2973 3.47215 34.9168C-1.9432 22.5363 3.70317 8.10991 16.0837 2.69456C28.4642 -2.72079 42.8906 2.92559 48.3059 15.3061Z"
        fill="url(#paint0_linear_1_1848)"/>
    <path
        d="M16.1499 17.9566C16.9832 19.8613 16.1147 22.0808 14.2101 22.9141C12.3054 23.7474 10.0859 22.879 9.25261 20.9743C8.41931 19.0696 9.28779 16.8501 11.1924 16.0168C13.097 15.1835 15.3166 16.052 16.1499 17.9566Z"
        fill="url(#paint1_linear_1_1848)"/>
    <path
        d="M38.4765 7.94866C38.9556 8.62786 38.9965 9.42338 38.568 9.72552C38.1394 10.0277 37.4037 9.72198 36.9247 9.04279C36.4457 8.3636 36.4048 7.56807 36.8333 7.26594C37.2618 6.96381 37.9975 7.26947 38.4765 7.94866Z"
        fill="url(#paint2_linear_1_1848)"/>
    <path
        d="M47.7842 25.5762C48.5289 25.8355 48.8418 26.881 48.4831 27.9113C48.1243 28.9416 47.2298 29.5666 46.485 29.3073C45.7403 29.048 45.4273 28.0026 45.7861 26.9723C46.1448 25.9419 47.0394 25.3169 47.7842 25.5762Z"
        fill="url(#paint3_linear_1_1848)"/>
    <path
        d="M25.1747 1.52869C25.2227 1.94879 24.383 2.38991 23.299 2.51396C22.215 2.638 21.2973 2.398 21.2493 1.9779C21.2012 1.5578 22.041 1.11668 23.1249 0.992636C24.2089 0.86859 25.1266 1.10859 25.1747 1.52869Z"
        fill="url(#paint4_linear_1_1848)"/>
    <path
        d="M34.3588 39.1689C34.8846 41.9064 32.6779 44.6313 29.43 45.2551C26.1821 45.8789 23.123 44.1654 22.5972 41.4278C22.0715 38.6903 24.2782 35.9653 27.5261 35.3415C30.774 34.7178 33.8331 36.4313 34.3588 39.1689Z"
        fill="url(#paint5_linear_1_1848)"/>
    <path
        d="M17.6333 1.71427C17.7965 2.04834 16.8234 2.85923 15.46 3.52543C14.0965 4.19163 12.8588 4.46087 12.6956 4.1268C12.5324 3.79272 13.5054 2.98183 14.8689 2.31563C16.2324 1.64943 17.47 1.38019 17.6333 1.71427Z"
        fill="#67111C"/>
    <path
        d="M17.8483 2.15357C18.1299 2.73 17.2528 3.73732 15.8893 4.40347C14.5257 5.06963 13.1919 5.14236 12.9103 4.56592C12.6286 3.98948 13.5057 2.98216 14.8693 2.31601C16.2329 1.64986 17.5666 1.57713 17.8483 2.15357Z"
        fill="#67111C"/>
    <path
        d="M16.8527 1.78296C16.9002 1.88017 16.1645 2.33722 15.2096 2.80382C14.2546 3.27041 13.442 3.56986 13.3945 3.47265C13.347 3.37545 14.0827 2.91839 15.0376 2.4518C15.9926 1.9852 16.8052 1.68575 16.8527 1.78296Z"
        fill="#3B0003"/>
    <path
        d="M0.574411 28.7181C1.15322 28.5419 2.2056 30.3142 2.92498 32.6768C3.64435 35.0394 3.7583 37.0975 3.1795 37.2738C2.60069 37.4501 1.5483 35.6777 0.82893 33.3151C0.109555 30.9525 -0.00439674 28.8944 0.574411 28.7181Z"
        fill="url(#paint6_linear_1_1848)"/>
    <path
        d="M1.33476 28.486C2.33352 28.1818 3.72633 29.8505 4.44568 32.213C5.16504 34.5755 4.93854 36.7372 3.93978 37.0414C2.94102 37.3455 1.54821 35.6769 0.828852 33.3144C0.109495 30.9519 0.335996 28.7901 1.33476 28.486Z"
        fill="url(#paint7_linear_1_1848)"/>
    <path
        d="M0.48469 29.9893C0.653096 29.938 1.19803 31.2378 1.70184 32.8925C2.20564 34.5472 2.47754 35.9302 2.30913 35.9814C2.14073 36.0327 1.59579 34.7329 1.09199 33.0782C0.58818 31.4235 0.316284 30.0405 0.48469 29.9893Z"
        fill="#210002"/>
    <path
        d="M21.2121 49.1205C21.2348 48.8 23.2538 48.5799 25.7218 48.6289C28.1897 48.6779 30.172 48.9775 30.1493 49.298C30.1267 49.6185 28.1076 49.8386 25.6397 49.7896C23.1717 49.7405 21.1894 49.441 21.2121 49.1205Z"
        fill="url(#paint8_linear_1_1848)"/>
    <path
        d="M21.242 48.6997C21.2811 48.1467 23.3134 47.7382 25.7813 47.7872C28.2492 47.8362 30.2181 48.3242 30.179 48.8772C30.1399 49.4302 28.1076 49.8387 25.6397 49.7897C23.1718 49.7407 21.2029 49.2527 21.242 48.6997Z"
        fill="url(#paint9_linear_1_1848)"/>
    <path
        d="M22.3845 49.3854C22.3911 49.2921 23.7976 49.2444 25.526 49.2787C27.2543 49.3131 28.6501 49.4165 28.6435 49.5098C28.6369 49.6031 27.2305 49.6509 25.5021 49.6165C23.7737 49.5822 22.378 49.4787 22.3845 49.3854Z"
        fill="#150303"/>
    <path
        d="M46.6336 38.8394C46.1525 38.6204 46.4874 36.8512 47.3816 34.8878C48.2758 32.9244 49.3907 31.5103 49.8718 31.7294C50.3528 31.9485 50.0179 33.7177 49.1237 35.6811C48.2295 37.6445 47.1147 39.0585 46.6336 38.8394Z"
        fill="url(#paint10_linear_1_1848)"/>
    <path
        d="M46.0025 38.552C45.1724 38.1739 45.2243 36.2759 46.1185 34.3125C47.0126 32.3491 48.4104 31.0639 49.2404 31.4419C50.0705 31.8199 50.0186 33.718 49.1245 35.6814C48.2303 37.6448 46.8326 38.93 46.0025 38.552Z"
        fill="url(#paint11_linear_1_1848)"/>
    <path
        d="M47.4276 38.0595C47.2877 37.9958 47.6818 36.8294 48.308 35.4543C48.9342 34.0792 49.5552 33.0161 49.6952 33.0799C49.8351 33.1436 49.441 34.31 48.8148 35.6851C48.1886 37.0602 47.5676 38.1233 47.4276 38.0595Z"
        fill="#130406"/>
    <path
        d="M46.7647 11.5917C46.4926 11.7772 45.6582 11.0271 44.901 9.91637C44.1439 8.80558 43.7507 7.75472 44.0228 7.56919C44.2949 7.38367 45.1293 8.13374 45.8865 9.24452C46.6436 10.3553 47.0368 11.4062 46.7647 11.5917Z"
        fill="url(#paint12_linear_1_1848)"/>
    <path
        d="M46.4075 11.8341C45.9379 12.1542 44.9434 11.5133 44.1861 10.4026C43.4289 9.29192 43.1957 8.13201 43.6653 7.81189C44.1349 7.49178 45.1295 8.13267 45.8867 9.24338C46.644 10.3541 46.8772 11.514 46.4075 11.8341Z"
        fill="url(#paint13_linear_1_1848)"/>
    <path
        d="M46.6052 10.9153C46.526 10.9692 46.0319 10.3824 45.5017 9.60445C44.9714 8.82653 44.6057 8.15215 44.6848 8.09817C44.764 8.04419 45.2581 8.63106 45.7884 9.40898C46.3187 10.1869 46.6844 10.8613 46.6052 10.9153Z"
        fill="#280102"/>
    <path
        d="M31.5231 21.8185C31.5231 23.1178 30.4697 24.1711 29.1703 24.1711C27.871 24.1711 26.8176 23.1178 26.8176 21.8185C26.8176 20.5191 27.871 19.4658 29.1703 19.4658C30.4697 19.4658 31.5231 20.5191 31.5231 21.8185Z"
        fill="#530F19"/>
    <path
        d="M11.1947 39.0097C10.604 39.5185 9.43781 39.133 8.58979 38.1485C7.74177 37.1641 7.53309 35.9535 8.1237 35.4447C8.71431 34.9358 9.88055 35.3214 10.7286 36.3058C11.5766 37.2902 11.7853 38.5008 11.1947 39.0097Z"
        fill="#470F19"/>
    <path
        d="M29.6407 5.82019C29.6407 6.59974 28.5874 7.23169 27.288 7.23169C25.9887 7.23169 24.9353 6.59974 24.9353 5.82019C24.9353 5.04064 25.9887 4.40869 27.288 4.40869C28.5874 4.40869 29.6407 5.04064 29.6407 5.82019Z"
        fill="#69111C"/>
    <path
        d="M43.5242 35.587C44.0367 36.1744 43.6585 37.3432 42.6795 38.1975C41.7004 39.0518 40.4912 39.2681 39.9786 38.6806C39.4661 38.0932 39.8443 36.9244 40.8233 36.0701C41.8024 35.2158 43.0116 34.9995 43.5242 35.587Z"
        fill="#360E16"/>
    <defs>
        <linearGradient id="paint0_linear_1_1848" x1="16.0837" y1="2.6946" x2="35.6944" y2="47.5284"
                        gradientUnits="userSpaceOnUse">
            <stop stop-color="#6A111C"/>
            <stop offset="1" stop-color="#1E0B13"/>
        </linearGradient>
        <linearGradient id="paint1_linear_1_1848" x1="11.1924" y1="16.0167" x2="14.2102" y2="22.9141"
                        gradientUnits="userSpaceOnUse">
            <stop stop-color="#1A0D15"/>
            <stop offset="1" stop-color="#5E141F"/>
        </linearGradient>
        <linearGradient id="paint2_linear_1_1848" x1="36.8333" y1="7.26609" x2="38.5676" y2="9.72591"
                        gradientUnits="userSpaceOnUse">
            <stop stop-color="#170D15"/>
            <stop offset="1" stop-color="#791521"/>
        </linearGradient>
        <linearGradient id="paint3_linear_1_1848" x1="45.7861" y1="26.9723" x2="48.4831" y2="27.9113"
                        gradientUnits="userSpaceOnUse">
            <stop stop-color="#220E16"/>
            <stop offset="1" stop-color="#480E18"/>
        </linearGradient>
        <linearGradient id="paint4_linear_1_1848" x1="23.125" y1="0.992551" x2="23.2991" y2="2.51387"
                        gradientUnits="userSpaceOnUse">
            <stop stop-color="#2D0E17"/>
            <stop offset="1" stop-color="#761421"/>
        </linearGradient>
        <linearGradient id="paint5_linear_1_1848" x1="27.526" y1="35.3415" x2="29.43" y2="45.2551"
                        gradientUnits="userSpaceOnUse">
            <stop stop-color="#150D15"/>
            <stop offset="1" stop-color="#411019"/>
        </linearGradient>
        <linearGradient id="paint6_linear_1_1848" x1="3.29043" y1="37.3466" x2="0.93763" y2="28.4065"
                        gradientUnits="userSpaceOnUse">
            <stop stop-color="#410E17"/>
            <stop offset="1" stop-color="#4E0F19"/>
        </linearGradient>
        <linearGradient id="paint7_linear_1_1848" x1="4.10968" y1="37.0962" x2="1.6123" y2="28.191"
                        gradientUnits="userSpaceOnUse">
            <stop stop-color="#410E17"/>
            <stop offset="1" stop-color="#4E0F19"/>
        </linearGradient>
        <linearGradient id="paint8_linear_1_1848" x1="30.5818" y1="49.1101" x2="21.1952" y2="49.5867"
                        gradientUnits="userSpaceOnUse">
            <stop stop-color="#1F0B13"/>
            <stop offset="1" stop-color="#250B14"/>
        </linearGradient>
        <linearGradient id="paint9_linear_1_1848" x1="30.6216" y1="48.5467" x2="21.2016" y2="48.5445"
                        gradientUnits="userSpaceOnUse">
            <stop stop-color="#1F0B13"/>
            <stop offset="1" stop-color="#250B14"/>
        </linearGradient>
        <linearGradient id="paint10_linear_1_1848" x1="46.5786" y1="38.7579" x2="49.8722" y2="31.6998"
                        gradientUnits="userSpaceOnUse">
            <stop stop-color="#240B14"/>
            <stop offset="1" stop-color="#2D0C15"/>
        </linearGradient>
        <linearGradient id="paint11_linear_1_1848" x1="45.8921" y1="38.4453" x2="49.1583" y2="31.3743"
                        gradientUnits="userSpaceOnUse">
            <stop stop-color="#240B14"/>
            <stop offset="1" stop-color="#2D0C15"/>
        </linearGradient>
        <linearGradient id="paint12_linear_1_1848" x1="43.756" y1="7.23336" x2="47.0502" y2="11.4683"
                        gradientUnits="userSpaceOnUse">
            <stop stop-color="#510F19"/>
            <stop offset="1" stop-color="#4A0E18"/>
        </linearGradient>
        <linearGradient id="paint13_linear_1_1848" x1="43.38" y1="7.48896" x2="46.5653" y2="11.815"
                        gradientUnits="userSpaceOnUse">
            <stop stop-color="#510F19"/>
            <stop offset="1" stop-color="#4A0E18"/>
        </linearGradient>
    </defs>
</svg>

