<svg width="113" height="111" viewBox="0 0 113 111" fill="none" xmlns="http://www.w3.org/2000/svg">
    <path d="M107.812 32.8774C119.95 60.6267 107.294 92.9617 79.5448 105.1C51.7955 117.237 19.4605 104.582 7.32272 76.8323C-4.8151 49.083 7.84055 16.748 35.5899 4.6102C63.3392 -7.52762 95.6742 5.12802 107.812 32.8774Z" fill="url(#paint0_linear_1_1822)"/>
    <path d="M35.7377 38.8213C37.6054 43.0902 35.6589 48.065 31.3899 49.9327C27.1209 51.8004 22.1461 49.8539 20.2784 45.5849C18.4107 41.316 20.3573 36.3412 24.6262 34.4735C28.8952 32.6057 33.87 34.5523 35.7377 38.8213Z" fill="url(#paint1_linear_1_1822)"/>
    <path d="M86.9764 15.7143C88.05 17.2368 87.8893 19.198 86.6177 20.0947C85.346 20.9915 83.4448 20.4843 82.3713 18.9618C81.2977 17.4393 81.4583 15.4781 82.73 14.5814C84.0017 13.6846 85.9028 14.1918 86.9764 15.7143Z" fill="url(#paint2_linear_1_1822)"/>
    <path d="M106.642 55.8978C108.311 56.479 109.012 58.8223 108.208 61.1316C107.404 63.441 105.399 64.842 103.73 64.2608C102.061 63.6796 101.359 61.3363 102.163 59.0269C102.968 56.7175 104.973 55.3166 106.642 55.8978Z" fill="url(#paint3_linear_1_1822)"/>
    <path d="M55.9662 1.99645C56.0739 2.93789 54.1917 3.92644 51.7622 4.20442C49.3327 4.48241 47.2758 3.94457 47.1681 3.00313C47.0604 2.06168 48.9426 1.07314 51.3721 0.795148C53.8016 0.517161 55.8584 1.055 55.9662 1.99645Z" fill="url(#paint4_linear_1_1822)"/>
    <path d="M76.5497 86.3631C77.7281 92.4988 72.782 98.6062 65.5023 100.004C58.2226 101.402 51.366 97.5619 50.1876 91.4261C49.0092 85.2903 53.9553 79.1829 61.235 77.7848C68.5147 76.3867 75.3714 80.2273 76.5497 86.3631Z" fill="url(#paint5_linear_1_1822)"/>
    <path d="M39.0641 2.41408C39.4299 3.16286 37.249 4.98031 34.1928 6.47348C31.1366 7.96665 28.3625 8.5701 27.9967 7.82133C27.6309 7.07256 29.8118 5.2551 32.868 3.76193C35.9242 2.26876 38.6982 1.66531 39.0641 2.41408Z" fill="#8A0F18"/>
    <path d="M39.5438 3.39813C40.1751 4.69022 38.2093 6.94813 35.1531 8.44131C32.097 9.93449 29.1077 10.0975 28.4765 8.80542C27.8452 7.51334 29.811 5.25543 32.8671 3.76224C35.9233 2.26906 38.9125 2.10604 39.5438 3.39813Z" fill="#8A0F18"/>
    <path d="M37.3145 2.56863C37.421 2.7865 35.7721 3.81087 33.6317 4.85664C31.4912 5.90241 29.6698 6.57355 29.5633 6.35568C29.4569 6.13782 31.1058 5.11344 33.2462 4.06768C35.3866 3.02191 37.2081 2.35077 37.3145 2.56863Z" fill="#480307"/>
    <path d="M0.82784 62.9394C2.12521 62.5444 4.48407 66.5168 6.09651 71.8122C7.70895 77.1075 7.96437 81.7204 6.667 82.1155C5.36964 82.5105 3.01077 78.5381 1.39833 73.2428C-0.214109 67.9475 -0.469527 63.3345 0.82784 62.9394Z" fill="url(#paint6_linear_1_1822)"/>
    <path d="M2.5329 62.4203C4.77166 61.7386 7.8937 65.4787 9.50616 70.774C11.1186 76.0694 10.6109 80.9147 8.37216 81.5964C6.1334 82.2782 3.01136 78.5381 1.3989 73.2427C-0.21357 67.9473 0.294142 63.102 2.5329 62.4203Z" fill="url(#paint7_linear_1_1822)"/>
    <path d="M0.625834 65.7894C1.00332 65.6745 2.2248 68.5878 3.35409 72.2965C4.48338 76.0052 5.09284 79.1049 4.71535 79.2199C4.33787 79.3348 3.11639 76.4215 1.9871 72.7128C0.857808 69.0041 0.24835 65.9044 0.625834 65.7894Z" fill="#350003"/>
    <path d="M47.0845 108.669C47.1353 107.95 51.6607 107.457 57.1922 107.567C62.7237 107.677 67.1668 108.348 67.116 109.066C67.0652 109.785 62.5398 110.278 57.0083 110.168C51.4768 110.058 47.0337 109.387 47.0845 108.669Z" fill="url(#paint8_linear_1_1822)"/>
    <path d="M47.1505 107.725C47.2381 106.485 51.7933 105.569 57.3248 105.679C62.8563 105.789 67.2695 106.883 67.1818 108.122C67.0942 109.362 62.539 110.278 57.0074 110.168C51.4759 110.058 47.0628 108.964 47.1505 107.725Z" fill="url(#paint9_linear_1_1822)"/>
    <path d="M49.7122 109.264C49.727 109.055 52.8795 108.948 56.7536 109.025C60.6277 109.102 63.7563 109.333 63.7415 109.542C63.7267 109.751 60.5742 109.858 56.7001 109.781C52.826 109.704 49.6974 109.473 49.7122 109.264Z" fill="#150303"/>
    <path d="M104.066 85.6255C102.988 85.1345 103.739 81.169 105.743 76.7682C107.747 72.3675 110.245 69.1981 111.323 69.6891C112.402 70.1801 111.651 74.1456 109.647 78.5463C107.643 82.9471 105.144 86.1165 104.066 85.6255Z" fill="url(#paint10_linear_1_1822)"/>
    <path d="M102.65 84.9811C100.789 84.1338 100.906 79.8794 102.91 75.4787C104.914 71.0779 108.047 68.1973 109.907 69.0446C111.768 69.8919 111.651 74.1462 109.647 78.547C107.643 82.9477 104.51 85.8283 102.65 84.9811Z" fill="url(#paint11_linear_1_1822)"/>
    <path d="M105.845 83.8756C105.531 83.7327 106.415 81.1184 107.818 78.0363C109.222 74.9542 110.614 72.5715 110.927 72.7144C111.241 72.8572 110.358 75.4716 108.954 78.5537C107.551 81.6358 106.158 84.0185 105.845 83.8756Z" fill="#130406"/>
    <path d="M104.357 24.5501C103.747 24.9659 101.877 23.2849 100.18 20.7955C98.4831 18.306 97.6018 15.9509 98.2117 15.5351C98.8217 15.1193 100.692 16.8003 102.389 19.2897C104.086 21.7792 104.967 24.1343 104.357 24.5501Z" fill="url(#paint12_linear_1_1822)"/>
    <path d="M103.557 25.0958C102.505 25.8132 100.276 24.3768 98.5786 21.8874C96.8816 19.3981 96.359 16.7984 97.4115 16.0809C98.4639 15.3635 100.693 16.7999 102.39 19.2893C104.087 21.7786 104.609 24.3783 103.557 25.0958Z" fill="url(#paint13_linear_1_1822)"/>
    <path d="M104 23.0367C103.823 23.1577 102.715 21.8424 101.527 20.0988C100.338 18.3553 99.5182 16.8438 99.6957 16.7228C99.8731 16.6018 100.981 17.9172 102.169 19.6607C103.358 21.4042 104.177 22.9157 104 23.0367Z" fill="#340409"/>
    <path d="M70.1945 47.4764C70.1945 50.3887 67.8336 52.7495 64.9213 52.7495C62.009 52.7495 59.6481 50.3887 59.6481 47.4764C59.6481 44.5642 62.009 42.2034 64.9213 42.2034C67.8336 42.2034 70.1945 44.5642 70.1945 47.4764Z" fill="#6C0C14"/>
    <path d="M24.6339 86.0066C23.3101 87.147 20.6959 86.283 18.795 84.0766C16.8942 81.8702 16.4264 79.157 17.7503 78.0165C19.0742 76.876 21.6883 77.7401 23.5892 79.9465C25.4901 82.1529 25.9578 84.8661 24.6339 86.0066Z" fill="#5B0C14"/>
    <path d="M65.975 11.6187C65.975 13.366 63.6141 14.7825 60.7017 14.7825C57.7894 14.7825 55.4285 13.366 55.4285 11.6187C55.4285 9.87132 57.7894 8.45483 60.7017 8.45483C63.6141 8.45483 65.975 9.87132 65.975 11.6187Z" fill="#8B0F19"/>
    <path d="M97.0947 78.3355C98.2435 79.6521 97.3959 82.2716 95.2015 84.1863C93.007 86.101 90.2968 86.5858 89.148 85.2691C87.9992 83.9525 88.8468 81.333 91.0412 79.4183C93.2357 77.5036 95.9459 77.0188 97.0947 78.3355Z" fill="#440A11"/>
    <defs>
        <linearGradient id="paint0_linear_1_1822" x1="35.5898" y1="4.61049" x2="79.5448" y2="105.1" gradientUnits="userSpaceOnUse">
            <stop stop-color="#8D0F19"/>
            <stop offset="1" stop-color="#23070C"/>
        </linearGradient>
        <linearGradient id="paint1_linear_1_1822" x1="24.6262" y1="34.4736" x2="31.3899" y2="49.9329" gradientUnits="userSpaceOnUse">
            <stop stop-color="#1D0A0F"/>
            <stop offset="1" stop-color="#7A121D"/>
        </linearGradient>
        <linearGradient id="paint2_linear_1_1822" x1="82.7301" y1="14.5815" x2="86.6179" y2="20.0948" gradientUnits="userSpaceOnUse">
            <stop stop-color="#18090F"/>
            <stop offset="1" stop-color="#A21421"/>
        </linearGradient>
        <linearGradient id="paint3_linear_1_1822" x1="102.163" y1="59.0271" x2="108.208" y2="61.1317" gradientUnits="userSpaceOnUse">
            <stop stop-color="#270A11"/>
            <stop offset="1" stop-color="#5D0B13"/>
        </linearGradient>
        <linearGradient id="paint4_linear_1_1822" x1="51.372" y1="0.795276" x2="51.7621" y2="4.20456" gradientUnits="userSpaceOnUse">
            <stop stop-color="#360B11"/>
            <stop offset="1" stop-color="#A1141F"/>
        </linearGradient>
        <linearGradient id="paint5_linear_1_1822" x1="57.0118" y1="78.7438" x2="68.1231" y2="99.2994" gradientUnits="userSpaceOnUse">
            <stop stop-color="#15090F"/>
            <stop offset="1" stop-color="#530D16"/>
        </linearGradient>
        <linearGradient id="paint6_linear_1_1822" x1="6.91561" y1="82.2791" x2="1.64246" y2="62.2411" gradientUnits="userSpaceOnUse">
            <stop stop-color="#540B12"/>
            <stop offset="1" stop-color="#660C14"/>
        </linearGradient>
        <linearGradient id="paint7_linear_1_1822" x1="8.75296" y1="81.7198" x2="3.15558" y2="61.7593" gradientUnits="userSpaceOnUse">
            <stop stop-color="#540B12"/>
            <stop offset="1" stop-color="#660C14"/>
        </linearGradient>
        <linearGradient id="paint8_linear_1_1822" x1="68.0854" y1="108.645" x2="47.047" y2="109.713" gradientUnits="userSpaceOnUse">
            <stop stop-color="#24070C"/>
            <stop offset="1" stop-color="#2C080D"/>
        </linearGradient>
        <linearGradient id="paint9_linear_1_1822" x1="68.1739" y1="107.382" x2="47.0598" y2="107.377" gradientUnits="userSpaceOnUse">
            <stop stop-color="#24070C"/>
            <stop offset="1" stop-color="#2C080D"/>
        </linearGradient>
        <linearGradient id="paint10_linear_1_1822" x1="103.943" y1="85.4427" x2="111.325" y2="69.6232" gradientUnits="userSpaceOnUse">
            <stop stop-color="#2D080D"/>
            <stop offset="1" stop-color="#38080E"/>
        </linearGradient>
        <linearGradient id="paint11_linear_1_1822" x1="102.402" y1="84.7417" x2="109.723" y2="68.8929" gradientUnits="userSpaceOnUse">
            <stop stop-color="#2D080D"/>
            <stop offset="1" stop-color="#38080E"/>
        </linearGradient>
        <linearGradient id="paint12_linear_1_1822" x1="97.6139" y1="14.7824" x2="104.996" y2="24.2741" gradientUnits="userSpaceOnUse">
            <stop stop-color="#6A0C15"/>
            <stop offset="1" stop-color="#600B13"/>
        </linearGradient>
        <linearGradient id="paint13_linear_1_1822" x1="96.7719" y1="15.3566" x2="103.911" y2="25.052" gradientUnits="userSpaceOnUse">
            <stop stop-color="#6A0C15"/>
            <stop offset="1" stop-color="#600B13"/>
        </linearGradient>
    </defs>
</svg>
