<svg width="233" height="229" viewBox="0 0 233 229" fill="none" xmlns="http://www.w3.org/2000/svg">
    <path d="M223.09 68.7598C248.206 126.18 222.018 193.088 164.598 218.204C107.178 243.32 40.2698 217.133 15.1538 159.713C-9.96221 102.293 16.2253 35.3844 73.6452 10.2683C131.065 -14.8477 197.974 11.3398 223.09 68.7598Z" fill="url(#paint0_linear_1_1770)"/>
    <path d="M73.9513 78.836C77.816 87.6694 73.7881 97.9634 64.9546 101.828C56.1211 105.693 45.8271 101.665 41.9623 92.8315C38.0976 83.998 42.1255 73.7041 50.959 69.8393C59.7925 65.9746 70.0865 70.0025 73.9513 78.836Z" fill="url(#paint1_linear_1_1770)"/>
    <path d="M180.041 30.9853C182.263 34.1355 181.916 38.2035 179.267 40.0714C176.619 41.9392 172.67 40.8995 170.449 37.7492C168.227 34.599 168.574 30.531 171.223 28.6631C173.871 26.7953 177.82 27.835 180.041 30.9853Z" fill="url(#paint2_linear_1_1770)"/>
    <path d="M220.667 114.173C224.121 115.375 225.572 120.224 223.908 125.003C222.244 129.781 218.095 132.68 214.641 131.478C211.187 130.275 209.736 125.426 211.4 120.648C213.064 115.869 217.213 112.97 220.667 114.173Z" fill="url(#paint3_linear_1_1770)"/>
    <path d="M115.807 2.63737C116.03 4.5855 112.135 6.63109 107.108 7.20633C102.081 7.78156 97.8249 6.66861 97.602 4.72048C97.3791 2.77235 101.274 0.72676 106.301 0.151523C111.328 -0.423715 115.584 0.689235 115.807 2.63737Z" fill="url(#paint4_linear_1_1770)"/>
    <path d="M158.4 179.434C160.838 192.13 150.604 204.767 135.54 207.66C120.477 210.553 106.289 202.606 103.851 189.91C101.412 177.214 111.647 164.576 126.71 161.683C141.774 158.79 155.962 166.737 158.4 179.434Z" fill="url(#paint5_linear_1_1770)"/>
    <path d="M80.8318 3.50241C81.5888 5.0518 77.0758 8.81256 70.7519 11.9023C64.4279 14.992 58.6877 16.2407 57.9307 14.6913C57.1737 13.1419 61.6866 9.38117 68.0106 6.29144C74.3345 3.2017 80.0748 1.95301 80.8318 3.50241Z" fill="#AD0D16"/>
    <path d="M81.8264 5.53799C83.1326 8.2116 79.065 12.8837 72.741 15.9734C66.417 19.0631 60.2315 19.4005 58.9253 16.7268C57.619 14.0532 61.6867 9.38114 68.0106 6.29142C74.3346 3.2017 80.5201 2.86438 81.8264 5.53799Z" fill="#AD0D16"/>
    <path d="M77.2136 3.82211C77.4338 4.27293 74.0219 6.39261 69.5928 8.55654C65.1637 10.7205 61.3946 12.1092 61.1744 11.6584C60.9541 11.2076 64.3661 9.08792 68.7952 6.92399C73.2243 4.76005 76.9933 3.3713 77.2136 3.82211Z" fill="#580509"/>
    <path d="M1.713 128.743C4.39757 127.926 9.27864 136.146 12.6152 147.103C15.9517 158.06 16.4802 167.606 13.7957 168.423C11.1111 169.241 6.23002 161.021 2.89349 150.063C-0.443045 139.106 -0.971567 129.561 1.713 128.743Z" fill="url(#paint6_linear_1_1770)"/>
    <path d="M5.24022 127.669C9.87269 126.258 16.3329 133.998 19.6694 144.955C23.0059 155.912 21.9554 165.938 17.3229 167.349C12.6904 168.759 6.23026 161.02 2.89372 150.063C-0.44282 139.106 0.607743 129.08 5.24022 127.669Z" fill="url(#paint7_linear_1_1770)"/>
    <path d="M1.29576 134.641C2.07687 134.403 4.60444 140.431 6.94123 148.105C9.27803 155.78 10.5392 162.193 9.75804 162.431C8.97693 162.669 6.44937 156.641 4.11257 148.967C1.77577 141.293 0.514644 134.879 1.29576 134.641Z" fill="#390003"/>
    <path d="M97.4275 225.589C97.5326 224.102 106.897 223.082 118.343 223.309C129.789 223.537 138.982 224.926 138.877 226.412C138.772 227.898 129.408 228.919 117.962 228.691C106.516 228.464 97.3224 227.075 97.4275 225.589Z" fill="url(#paint8_linear_1_1770)"/>
    <path d="M97.566 223.636C97.7474 221.072 107.173 219.177 118.619 219.404C130.065 219.632 139.197 221.895 139.016 224.46C138.834 227.024 129.408 228.919 117.962 228.692C106.516 228.464 97.3846 226.201 97.566 223.636Z" fill="url(#paint9_linear_1_1770)"/>
    <path d="M102.865 226.82C102.896 226.388 109.419 226.166 117.435 226.326C125.452 226.485 131.926 226.965 131.895 227.397C131.864 227.829 125.341 228.051 117.325 227.892C109.308 227.732 102.835 227.253 102.865 226.82Z" fill="#150303"/>
    <path d="M215.336 175.686C213.105 174.67 214.658 166.465 218.805 157.359C222.952 148.253 228.122 141.694 230.354 142.71C232.585 143.726 231.031 151.932 226.884 161.038C222.738 170.144 217.567 176.702 215.336 175.686Z" fill="url(#paint10_linear_1_1770)"/>
    <path d="M212.405 174.352C208.555 172.598 208.796 163.795 212.942 154.689C217.089 145.583 223.572 139.622 227.422 141.376C231.272 143.129 231.031 151.932 226.884 161.038C222.737 170.144 216.254 176.105 212.405 174.352Z" fill="url(#paint11_linear_1_1770)"/>
    <path d="M219.018 172.064C218.369 171.768 220.197 166.359 223.101 159.981C226.006 153.603 228.886 148.673 229.535 148.969C230.184 149.264 228.356 154.674 225.452 161.052C222.548 167.429 219.667 172.36 219.018 172.064Z" fill="#130406"/>
    <path d="M215.94 49.3062C214.678 50.1666 210.809 46.6882 207.297 41.537C203.785 36.3858 201.962 31.5125 203.224 30.6522C204.486 29.7918 208.356 33.2702 211.867 38.4214C215.379 43.5725 217.202 48.4459 215.94 49.3062Z" fill="url(#paint12_linear_1_1770)"/>
    <path d="M214.283 50.4369C212.105 51.9215 207.493 48.9492 203.981 43.7981C200.47 38.647 199.388 33.2676 201.566 31.783C203.744 30.2984 208.356 33.2707 211.868 38.4219C215.379 43.573 216.461 48.9523 214.283 50.4369Z" fill="url(#paint13_linear_1_1770)"/>
    <path d="M215.201 46.1743C214.833 46.4246 212.542 43.7029 210.082 40.0953C207.623 36.4876 205.927 33.3601 206.294 33.1097C206.661 32.8594 208.953 35.5811 211.412 39.1887C213.872 42.7964 215.568 45.9239 215.201 46.1743Z" fill="#460003"/>
    <path d="M145.248 96.7459C145.248 102.772 140.363 107.657 134.337 107.657C128.311 107.657 123.425 102.772 123.425 96.7459C123.425 90.7197 128.311 85.8345 134.337 85.8345C140.363 85.8345 145.248 90.7197 145.248 96.7459Z" fill="#85090F"/>
    <path d="M50.973 176.474C48.2336 178.834 42.8244 177.046 38.8911 172.48C34.9579 167.915 33.99 162.3 36.7294 159.94C39.4687 157.58 44.8779 159.368 48.8112 163.934C52.7445 168.5 53.7123 174.114 50.973 176.474Z" fill="#6F090F"/>
    <path d="M136.518 22.5482C136.518 26.1639 131.633 29.095 125.607 29.095C119.581 29.095 114.695 26.1639 114.695 22.5482C114.695 18.9325 119.581 16.0013 125.607 16.0013C131.633 16.0013 136.518 18.9325 136.518 22.5482Z" fill="#AC0D16"/>
    <path d="M200.912 160.601C203.289 163.326 201.535 168.746 196.994 172.708C192.454 176.67 186.846 177.673 184.468 174.949C182.091 172.224 183.845 166.804 188.386 162.842C192.927 158.88 198.535 157.877 200.912 160.601Z" fill="#51070B"/>
    <defs>
        <linearGradient id="paint0_linear_1_1770" x1="73.6452" y1="10.2682" x2="164.598" y2="218.204" gradientUnits="userSpaceOnUse">
            <stop stop-color="#B10E17"/>
            <stop offset="1" stop-color="#2B0205"/>
        </linearGradient>
        <linearGradient id="paint1_linear_1_1770" x1="50.9591" y1="69.8393" x2="64.9546" y2="101.828" gradientUnits="userSpaceOnUse">
            <stop stop-color="#26070A"/>
            <stop offset="1" stop-color="#97111B"/>
        </linearGradient>
        <linearGradient id="paint2_linear_1_1770" x1="171.223" y1="28.663" x2="179.267" y2="40.0712" gradientUnits="userSpaceOnUse">
            <stop stop-color="#1C0509"/>
            <stop offset="1" stop-color="#C4121F"/>
        </linearGradient>
        <linearGradient id="paint3_linear_1_1770" x1="211.4" y1="120.647" x2="223.908" y2="125.003" gradientUnits="userSpaceOnUse">
            <stop stop-color="#2C070B"/>
            <stop offset="1" stop-color="#72080E"/>
        </linearGradient>
        <linearGradient id="paint4_linear_1_1770" x1="106.301" y1="0.151466" x2="107.108" y2="7.20627" gradientUnits="userSpaceOnUse">
            <stop stop-color="#3F080C"/>
            <stop offset="1" stop-color="#C8131E"/>
        </linearGradient>
        <linearGradient id="paint5_linear_1_1770" x1="126.71" y1="161.683" x2="135.54" y2="207.66" gradientUnits="userSpaceOnUse">
            <stop stop-color="#150508"/>
            <stop offset="1" stop-color="#650A11"/>
        </linearGradient>
        <linearGradient id="paint6_linear_1_1770" x1="14.3107" y1="168.761" x2="3.39918" y2="127.297" gradientUnits="userSpaceOnUse">
            <stop stop-color="#69070D"/>
            <stop offset="1" stop-color="#800910"/>
        </linearGradient>
        <linearGradient id="paint7_linear_1_1770" x1="18.1113" y1="167.603" x2="6.52892" y2="126.301" gradientUnits="userSpaceOnUse">
            <stop stop-color="#69070D"/>
            <stop offset="1" stop-color="#800910"/>
        </linearGradient>
        <linearGradient id="paint8_linear_1_1770" x1="140.883" y1="225.54" x2="97.3496" y2="227.75" gradientUnits="userSpaceOnUse">
            <stop stop-color="#2D0205"/>
            <stop offset="1" stop-color="#370306"/>
        </linearGradient>
        <linearGradient id="paint9_linear_1_1770" x1="141.068" y1="222.927" x2="97.3781" y2="222.916" gradientUnits="userSpaceOnUse">
            <stop stop-color="#2D0205"/>
            <stop offset="1" stop-color="#370306"/>
        </linearGradient>
        <linearGradient id="paint10_linear_1_1770" x1="215.081" y1="175.308" x2="230.357" y2="142.573" gradientUnits="userSpaceOnUse">
            <stop stop-color="#390307"/>
            <stop offset="1" stop-color="#450408"/>
        </linearGradient>
        <linearGradient id="paint11_linear_1_1770" x1="211.892" y1="173.856" x2="227.041" y2="141.061" gradientUnits="userSpaceOnUse">
            <stop stop-color="#390307"/>
            <stop offset="1" stop-color="#450408"/>
        </linearGradient>
        <linearGradient id="paint12_linear_1_1770" x1="200.788" y1="32.0136" x2="215.233" y2="49.7913" gradientUnits="userSpaceOnUse">
            <stop stop-color="#840A11"/>
            <stop offset="1" stop-color="#79090F"/>
        </linearGradient>
        <linearGradient id="paint13_linear_1_1770" x1="200.233" y1="32.0142" x2="214.677" y2="50.3475" gradientUnits="userSpaceOnUse">
            <stop stop-color="#850A11"/>
            <stop offset="1" stop-color="#79090F"/>
        </linearGradient>
    </defs>
</svg>
