<svg width="285" height="278" viewBox="0 0 285 278" fill="none" xmlns="http://www.w3.org/2000/svg">
    <path
        d="M272.994 83.4387C303.619 153.453 271.688 235.036 201.674 265.661C131.66 296.286 50.0763 264.355 19.4516 194.341C-11.1731 124.327 20.7581 42.743 90.772 12.1182C160.786 -18.5065 242.369 13.4248 272.994 83.4387Z"
        fill="url(#paint0_linear_1_1744)"/>
    <path
        d="M91.1451 98.4352C95.8575 109.206 90.9461 121.758 80.1752 126.47C69.4042 131.183 56.8524 126.271 52.14 115.5C47.4276 104.729 52.339 92.1777 63.1099 87.4653C73.8809 82.7529 86.4327 87.6643 91.1451 98.4352Z"
        fill="url(#paint1_linear_1_1744)"/>
    <path
        d="M221.153 42.0727C223.858 45.2112 223.347 49.3153 220.011 51.2394C216.675 53.1636 211.777 52.1793 209.072 49.0408C206.366 45.9023 206.877 41.7983 210.213 39.8741C213.549 37.9499 218.447 38.9343 221.153 42.0727Z"
        fill="url(#paint2_linear_1_1744)"/>
    <path
        d="M270.041 141.521C274.252 142.987 276.022 148.899 273.993 154.726C271.964 160.553 266.906 164.088 262.694 162.621C258.482 161.155 256.713 155.243 258.741 149.416C260.77 143.589 265.829 140.054 270.041 141.521Z"
        fill="url(#paint3_linear_1_1744)"/>
    <path
        d="M142.182 5.52365C142.453 7.89904 137.705 10.3933 131.575 11.0947C125.445 11.7961 120.255 10.439 119.983 8.06363C119.712 5.68824 124.46 3.19401 130.59 2.49262C136.72 1.79122 141.91 3.14826 142.182 5.52365Z"
        fill="url(#paint4_linear_1_1744)"/>
    <path
        d="M194.117 218.387C197.09 233.867 184.611 249.277 166.244 252.804C147.876 256.332 130.576 246.642 127.603 231.161C124.63 215.68 137.109 200.271 155.477 196.743C173.844 193.216 191.144 202.906 194.117 218.387Z"
        fill="url(#paint5_linear_1_1744)"/>
    <path
        d="M99.5358 6.57741C100.459 8.46661 94.9561 13.0521 87.2452 16.8195C79.5342 20.5868 72.5349 22.1094 71.6119 20.2202C70.6889 18.331 76.1916 13.7455 83.9026 9.97811C91.6136 6.21076 98.6128 4.68821 99.5358 6.57741Z"
        fill="#C00C14"/>
    <path
        d="M100.749 9.05983C102.341 12.3198 97.3816 18.0166 89.6705 21.7839C81.9595 25.5513 74.4173 25.9626 72.8246 22.7026C71.2318 19.4426 76.1916 13.7459 83.9026 9.9785C91.6137 6.21115 99.1559 5.79985 100.749 9.05983Z"
        fill="#C00C14"/>
    <path
        d="M95.1225 6.9683C95.391 7.51799 91.2308 10.1025 85.8303 12.741C80.4298 15.3795 75.8341 17.0728 75.5655 16.5232C75.297 15.9735 79.4572 13.3889 84.8577 10.7504C90.2582 8.11194 94.8539 6.41862 95.1225 6.9683Z"
        fill="#400003"/>
    <path
        d="M3.06333 159.288C6.33671 158.291 12.2884 168.314 16.3567 181.675C20.425 195.035 21.0695 206.674 17.7961 207.671C14.5227 208.668 8.57108 198.645 4.50273 185.284C0.434391 171.924 -0.210053 160.285 3.06333 159.288Z"
        fill="url(#paint6_linear_1_1744)"/>
    <path
        d="M7.36341 157.977C13.0119 156.257 20.889 165.694 24.9573 179.055C29.0257 192.415 27.7447 204.641 22.0962 206.361C16.4477 208.081 8.57059 198.644 4.50225 185.283C0.433901 171.923 1.71489 159.697 7.36341 157.977Z"
        fill="url(#paint7_linear_1_1744)"/>
    <path
        d="M2.55551 166.479C3.50796 166.189 6.58992 173.54 9.43927 182.897C12.2886 192.254 13.8264 200.075 12.8739 200.365C11.9215 200.655 8.83952 193.305 5.99017 183.947C3.14082 174.59 1.60307 166.769 2.55551 166.479Z"
        fill="#400104"/>
    <path
        d="M119.771 272.444C119.899 270.631 131.317 269.387 145.274 269.664C159.23 269.942 170.44 271.635 170.312 273.447C170.184 275.26 158.766 276.504 144.81 276.227C130.853 275.95 119.643 274.256 119.771 272.444Z"
        fill="url(#paint8_linear_1_1744)"/>
    <path
        d="M119.94 270.063C120.161 266.936 131.654 264.625 145.611 264.902C159.567 265.18 170.702 267.939 170.481 271.067C170.26 274.194 158.767 276.504 144.81 276.227C130.854 275.95 119.719 273.19 119.94 270.063Z"
        fill="url(#paint9_linear_1_1744)"/>
    <path
        d="M126.401 273.944C126.438 273.417 134.392 273.147 144.167 273.341C153.941 273.535 161.835 274.12 161.798 274.647C161.76 275.175 153.806 275.445 144.032 275.251C134.257 275.057 126.363 274.472 126.401 273.944Z"
        fill="#150303"/>
    <path
        d="M263.541 216.526C260.821 215.287 262.715 205.282 267.771 194.179C272.828 183.076 279.132 175.079 281.852 176.318C284.573 177.557 282.679 187.562 277.622 198.665C272.566 209.768 266.262 217.765 263.541 216.526Z"
        fill="url(#paint10_linear_1_1744)"/>
    <path
        d="M259.966 214.9C255.272 212.762 255.566 202.028 260.622 190.925C265.679 179.822 273.583 172.554 278.277 174.691C282.971 176.829 282.678 187.563 277.621 198.666C272.565 209.769 264.66 217.037 259.966 214.9Z"
        fill="url(#paint11_linear_1_1744)"/>
    <path
        d="M268.029 212.11C267.238 211.75 269.467 205.153 273.009 197.377C276.55 189.601 280.063 183.589 280.854 183.949C281.646 184.31 279.416 190.906 275.875 198.682C272.333 206.459 268.821 212.471 268.029 212.11Z"
        fill="#130406"/>
    <path
        d="M264.278 62.4289C262.739 63.478 258.02 59.2366 253.739 52.9556C249.457 46.6746 247.233 40.7323 248.772 39.6833C250.311 38.6342 255.029 42.8755 259.311 49.1566C263.593 55.4376 265.817 61.3798 264.278 62.4289Z"
        fill="url(#paint12_linear_1_1744)"/>
    <path
        d="M262.256 63.8067C259.601 65.6169 253.977 61.9928 249.695 55.7119C245.414 49.431 244.095 42.8719 246.751 41.0617C249.406 39.2515 255.03 42.8756 259.312 49.1565C263.593 55.4374 264.912 61.9965 262.256 63.8067Z"
        fill="url(#paint13_linear_1_1744)"/>
    <path
        d="M263.375 58.6094C262.927 58.9147 260.133 55.5961 257.134 51.1972C254.135 46.7983 252.067 42.9849 252.515 42.6796C252.963 42.3744 255.757 45.693 258.756 50.0919C261.754 54.4908 263.823 58.3042 263.375 58.6094Z"
        fill="#3D0002"/>
    <path
        d="M178.079 120.273C178.079 127.621 172.123 133.577 164.775 133.577C157.427 133.577 151.47 127.621 151.47 120.273C151.47 112.925 157.427 106.968 164.775 106.968C172.123 106.968 178.079 112.925 178.079 120.273Z"
        fill="#91080D"/>
    <path
        d="M63.1273 217.487C59.7871 220.365 53.1915 218.185 48.3955 212.618C43.5995 207.051 42.4194 200.205 45.7596 197.327C49.0998 194.45 55.6954 196.63 60.4914 202.197C65.2874 207.764 66.4675 214.61 63.1273 217.487Z"
        fill="#79080D"/>
    <path
        d="M167.436 29.8011C167.436 34.2098 161.48 37.7838 154.132 37.7838C146.784 37.7838 140.827 34.2098 140.827 29.8011C140.827 25.3923 146.784 21.8184 154.132 21.8184C161.48 21.8184 167.436 25.3923 167.436 29.8011Z"
        fill="#BD0C14"/>
    <path
        d="M245.953 198.133C248.851 201.455 246.712 208.064 241.176 212.895C235.639 217.726 228.801 218.949 225.902 215.627C223.004 212.305 225.142 205.696 230.679 200.865C236.216 196.034 243.054 194.811 245.953 198.133Z"
        fill="#580508"/>
    <defs>
        <linearGradient id="paint0_linear_1_1744" x1="90.7721" y1="12.1185" x2="201.674" y2="265.661"
                        gradientUnits="userSpaceOnUse">
            <stop stop-color="#C50D15"/>
            <stop offset="1" stop-color="#280001"/>
        </linearGradient>
        <linearGradient id="paint1_linear_1_1744" x1="63.1099" y1="87.4652" x2="80.1751" y2="126.47"
                        gradientUnits="userSpaceOnUse">
            <stop stop-color="#1F0406"/>
            <stop offset="1" stop-color="#A8111A"/>
        </linearGradient>
        <linearGradient id="paint2_linear_1_1744" x1="210.213" y1="39.8738" x2="217.578" y2="52.6427"
                        gradientUnits="userSpaceOnUse">
            <stop stop-color="#190306"/>
            <stop offset="1" stop-color="#E0131F"/>
        </linearGradient>
        <linearGradient id="paint3_linear_1_1744" x1="258.741" y1="149.416" x2="273.993" y2="154.726"
                        gradientUnits="userSpaceOnUse">
            <stop stop-color="#2E0508"/>
            <stop offset="1" stop-color="#7D060D"/>
        </linearGradient>
        <linearGradient id="paint4_linear_1_1744" x1="130.59" y1="2.49238" x2="131.575" y2="11.0944"
                        gradientUnits="userSpaceOnUse">
            <stop stop-color="#420609"/>
            <stop offset="1" stop-color="#DF131E"/>
        </linearGradient>
        <linearGradient id="paint5_linear_1_1744" x1="155.477" y1="196.743" x2="166.244" y2="252.804"
                        gradientUnits="userSpaceOnUse">
            <stop stop-color="#150305"/>
            <stop offset="1" stop-color="#70090F"/>
        </linearGradient>
        <linearGradient id="paint6_linear_1_1744" x1="18.424" y1="208.082" x2="5.11933" y2="157.525"
                        gradientUnits="userSpaceOnUse">
            <stop stop-color="#6F060A"/>
            <stop offset="1" stop-color="#8C080E"/>
        </linearGradient>
        <linearGradient id="paint7_linear_1_1744" x1="23.0574" y1="206.671" x2="8.93459" y2="156.309"
                        gradientUnits="userSpaceOnUse">
            <stop stop-color="#6F060A"/>
            <stop offset="1" stop-color="#8C080E"/>
        </linearGradient>
        <linearGradient id="paint8_linear_1_1744" x1="172.758" y1="272.384" x2="119.676" y2="275.08"
                        gradientUnits="userSpaceOnUse">
            <stop stop-color="#2A0001"/>
            <stop offset="1" stop-color="#360103"/>
        </linearGradient>
        <linearGradient id="paint9_linear_1_1744" x1="172.984" y1="269.197" x2="119.711" y2="269.185"
                        gradientUnits="userSpaceOnUse">
            <stop stop-color="#2A0001"/>
            <stop offset="1" stop-color="#360103"/>
        </linearGradient>
        <linearGradient id="paint10_linear_1_1744" x1="263.23" y1="216.064" x2="281.856" y2="176.15"
                        gradientUnits="userSpaceOnUse">
            <stop stop-color="#380103"/>
            <stop offset="1" stop-color="#470205"/>
        </linearGradient>
        <linearGradient id="paint11_linear_1_1744" x1="259.342" y1="214.295" x2="277.813" y2="174.308"
                        gradientUnits="userSpaceOnUse">
            <stop stop-color="#380103"/>
            <stop offset="1" stop-color="#470205"/>
        </linearGradient>
        <linearGradient id="paint12_linear_1_1744" x1="247.264" y1="37.7835" x2="265.891" y2="61.7318"
                        gradientUnits="userSpaceOnUse">
            <stop stop-color="#92090E"/>
            <stop offset="1" stop-color="#82070C"/>
        </linearGradient>
        <linearGradient id="paint13_linear_1_1744" x1="245.137" y1="39.234" x2="263.15" y2="63.6961"
                        gradientUnits="userSpaceOnUse">
            <stop stop-color="#92090E"/>
            <stop offset="1" stop-color="#82070C"/>
        </linearGradient>
    </defs>
</svg>
