<svg width="61" height="60" viewBox="0 0 61 60" fill="none" xmlns="http://www.w3.org/2000/svg">
    <path d="M58.0524 17.7032C64.5881 32.6452 57.7735 50.0564 42.8316 56.5922C27.8896 63.1279 10.4785 56.3133 3.94274 41.3713C-2.59301 26.4293 4.22157 9.01818 19.1635 2.48242C34.1055 -4.05334 51.5166 2.76125 58.0524 17.7032Z" fill="url(#paint0_linear_1_1716)"/>
    <path d="M19.2431 20.9038C20.2488 23.2025 19.2007 25.8812 16.902 26.8869C14.6033 27.8926 11.9246 26.8445 10.9189 24.5458C9.91324 22.2471 10.9614 19.5684 13.2601 18.5627C15.5587 17.557 18.2374 18.6051 19.2431 20.9038Z" fill="url(#paint1_linear_1_1716)"/>
    <path d="M46.3888 8.71171C46.9669 9.53149 46.9742 10.5213 46.4052 10.9226C45.8361 11.3238 44.9062 10.9846 44.3281 10.1648C43.75 9.34501 43.7426 8.35517 44.3117 7.95392C44.8807 7.55267 45.8107 7.89194 46.3888 8.71171Z" fill="url(#paint2_linear_1_1716)"/>
    <path d="M57.4224 30.0988C58.3212 30.4117 58.6989 31.6735 58.2659 32.917C57.833 34.1606 56.7534 34.915 55.8545 34.602C54.9557 34.289 54.5781 33.0273 55.0111 31.7837C55.444 30.5402 56.5236 29.7858 57.4224 30.0988Z" fill="url(#paint3_linear_1_1716)"/>
    <path d="M30.1348 1.07456C30.1928 1.58151 29.1794 2.11383 27.8712 2.26352C26.563 2.41321 25.4555 2.12359 25.3975 1.61664C25.3395 1.10968 26.353 0.577366 27.6611 0.427675C28.9693 0.277983 30.0768 0.567601 30.1348 1.07456Z" fill="url(#paint4_linear_1_1716)"/>
    <path d="M41.2193 46.5029C41.8538 49.8067 39.1905 53.0953 35.2707 53.8481C31.3508 54.601 27.6588 52.5329 27.0243 49.2291C26.3897 45.9253 29.053 42.6367 32.9729 41.8839C36.8927 41.131 40.5848 43.199 41.2193 46.5029Z" fill="url(#paint5_linear_1_1716)"/>
    <path d="M21.035 1.29979C21.232 1.70298 20.0576 2.68162 18.412 3.48564C16.7664 4.28966 15.2726 4.61459 15.0756 4.21141C14.8787 3.80822 16.053 2.82958 17.6987 2.02556C19.3443 1.22154 20.838 0.896605 21.035 1.29979Z" fill="#79101A"/>
    <path d="M21.2934 1.82988C21.6333 2.52562 20.5749 3.74142 18.9292 4.54544C17.2836 5.34946 15.674 5.43724 15.3341 4.7415C14.9942 4.04576 16.0527 2.82996 17.6983 2.02594C19.3439 1.22192 20.9535 1.13414 21.2934 1.82988Z" fill="#79101A"/>
    <path d="M20.0924 1.38312C20.1497 1.50044 19.2619 2.05202 18.1093 2.61512C16.9568 3.17822 15.976 3.53961 15.9186 3.4223C15.8613 3.30498 16.7492 2.7534 17.9017 2.1903C19.0543 1.6272 20.0351 1.26581 20.0924 1.38312Z" fill="#400205"/>
    <path d="M0.445762 33.8905C1.14435 33.6778 2.41451 35.8168 3.28275 38.6682C4.151 41.5196 4.28853 44.0035 3.58994 44.2162C2.89136 44.4289 1.62119 42.2899 0.752951 39.4385C-0.11529 36.5872 -0.252824 34.1032 0.445762 33.8905Z" fill="url(#paint6_linear_1_1716)"/>
    <path d="M1.3629 33.6113C2.56838 33.2442 4.24946 35.2581 5.1177 38.1095C5.98595 40.9608 5.71257 43.5698 4.50709 43.9369C3.30162 44.304 1.62053 42.2901 0.75229 39.4387C-0.115954 36.5874 0.157427 33.9784 1.3629 33.6113Z"
          fill="url(#paint7_linear_1_1716)"/>
    <path
        d="M0.336935 35.4255C0.540206 35.3636 1.19796 36.9323 1.80608 38.9293C2.41419 40.9263 2.74238 42.5953 2.5391 42.6572C2.33583 42.7191 1.67807 41.1504 1.06996 39.1534C0.46185 37.1565 0.133663 35.4874 0.336935 35.4255Z"
        fill="#2A0204"/>
    <path
        d="M25.353 58.5141C25.3804 58.1273 27.8171 57.8617 30.7956 57.9209C33.7741 57.9801 36.1665 58.3415 36.1391 58.7283C36.1118 59.115 33.675 59.3806 30.6965 59.3214C27.718 59.2623 25.3257 58.9008 25.353 58.5141Z"
        fill="url(#paint8_linear_1_1716)"/>
    <path
        d="M25.3895 58.0056C25.4367 57.3382 27.8895 56.8452 30.868 56.9043C33.8465 56.9635 36.2228 57.5525 36.1756 58.2198C36.1284 58.8872 33.6756 59.3802 30.6971 59.3211C27.7186 59.2619 25.3423 58.673 25.3895 58.0056Z"
        fill="url(#paint9_linear_1_1716)"/>
    <path
        d="M26.7683 58.8343C26.7763 58.7217 28.4738 58.6641 30.5598 58.7055C32.6459 58.747 34.3305 58.8718 34.3225 58.9843C34.3146 59.0969 32.6171 59.1545 30.531 59.1131C28.445 59.0716 26.7604 58.9468 26.7683 58.8343Z"
        fill="#150303"/>
    <path
        d="M56.0349 46.1062C55.4543 45.8418 55.8585 43.7066 56.9377 41.337C58.0168 38.9674 59.3623 37.2609 59.9429 37.5252C60.5235 37.7896 60.1193 39.9249 59.0402 42.2944C57.961 44.664 56.6155 46.3706 56.0349 46.1062Z"
        fill="url(#paint10_linear_1_1716)"/>
    <path
        d="M55.2726 45.7587C54.2708 45.3025 54.3335 43.0117 55.4126 40.6421C56.4917 38.2725 58.1786 36.7213 59.1804 37.1776C60.1822 37.6338 60.1196 39.9246 59.0405 42.2942C57.9613 44.6639 56.2744 46.215 55.2726 45.7587Z"
        fill="url(#paint11_linear_1_1716)"/>
    <path
        d="M56.9928 45.1636C56.8239 45.0867 57.2996 43.679 58.0554 42.0194C58.8112 40.3598 59.5608 39.0768 59.7297 39.1537C59.8986 39.2307 59.4229 40.6384 58.6671 42.298C57.9113 43.9576 57.1617 45.2406 56.9928 45.1636Z" fill="#130406"/>
    <path d="M56.1928 13.2191C55.8644 13.443 54.8573 12.5378 53.9435 11.1974C53.0297 9.8569 52.5551 8.58876 52.8835 8.36488C53.2119 8.14099 54.219 9.04615 55.1328 10.3866C56.0466 11.727 56.5212 12.9952 56.1928 13.2191Z" fill="url(#paint12_linear_1_1716)"/>
    <path d="M55.7616 13.5133C55.1949 13.8996 53.9947 13.1261 53.081 11.7857C52.1672 10.4452 51.8858 9.04535 52.4525 8.65902C53.0192 8.27268 54.2194 9.04615 55.1331 10.3866C56.0469 11.7271 56.3283 13.1269 55.7616 13.5133Z" fill="url(#paint13_linear_1_1716)"/>
    <path d="M56.0003 12.4044C55.9048 12.4695 55.3085 11.7613 54.6685 10.8224C54.0286 9.88365 53.5873 9.06979 53.6828 9.00464C53.7784 8.9395 54.3746 9.64775 55.0146 10.5865C55.6545 11.5254 56.0959 12.3392 56.0003 12.4044Z" fill="#2E0102"/>
    <path d="M37.7964 25.5642C37.7964 27.1323 36.5252 28.4036 34.957 28.4036C33.3889 28.4036 32.1177 27.1323 32.1177 25.5642C32.1177 23.996 33.3889 22.7248 34.957 22.7248C36.5252 22.7248 37.7964 23.996 37.7964 25.5642Z" fill="#5F0E17"/>
    <path d="M13.2636 46.3114C12.5508 46.9255 11.1432 46.4602 10.1197 45.2722C9.09612 44.0841 8.84426 42.6231 9.55711 42.009C10.2699 41.3949 11.6776 41.8602 12.7011 43.0482C13.7246 44.2363 13.9765 45.6973 13.2636 46.3114Z" fill="#510E17"/>
    <path d="M35.525 6.25618C35.525 7.19707 34.2538 7.95981 32.6857 7.95981C31.1175 7.95981 29.8463 7.19707 29.8463 6.25618C29.8463 5.31529 31.1175 4.55255 32.6857 4.55255C34.2538 4.55255 35.525 5.31529 35.525 6.25618Z" fill="#7A101B"/>
    <path d="M52.2825 42.1805C52.9011 42.8894 52.4447 44.2999 51.263 45.3309C50.0814 46.3619 48.622 46.6229 48.0034 45.9139C47.3848 45.205 47.8412 43.7945 49.0228 42.7635C50.2045 41.7326 51.6639 41.4715 52.2825 42.1805Z" fill="#3D0C14"/>
    <defs>
        <linearGradient id="paint0_linear_1_1716" x1="19.1635" y1="2.48236" x2="42.8316" y2="56.5921" gradientUnits="userSpaceOnUse">
            <stop stop-color="#7C101B"/>
            <stop offset="1" stop-color="#20090F"/>
        </linearGradient>
        <linearGradient id="paint1_linear_1_1716" x1="13.26" y1="18.5627" x2="16.902" y2="26.8869" gradientUnits="userSpaceOnUse">
            <stop stop-color="#1C0C12"/>
            <stop offset="1" stop-color="#6C131E"/>
        </linearGradient>
        <linearGradient id="paint2_linear_1_1716" x1="44.3117" y1="7.95392" x2="46.405" y2="10.9227" gradientUnits="userSpaceOnUse">
            <stop stop-color="#190B12"/>
            <stop offset="1" stop-color="#8C1421"/>
        </linearGradient>
        <linearGradient id="paint3_linear_1_1716" x1="55.0111" y1="31.7837" x2="58.266" y2="32.917" gradientUnits="userSpaceOnUse">
            <stop stop-color="#250C14"/>
            <stop offset="1" stop-color="#530D16"/>
        </linearGradient>
        <linearGradient id="paint4_linear_1_1716" x1="27.6611" y1="0.427671" x2="27.8712" y2="2.26351" gradientUnits="userSpaceOnUse">
            <stop stop-color="#310D14"/>
            <stop offset="1" stop-color="#8C1520"/>
        </linearGradient>
        <linearGradient id="paint5_linear_1_1716" x1="32.9729" y1="41.8838" x2="35.2707" y2="53.8481" gradientUnits="userSpaceOnUse">
            <stop stop-color="#160B12"/>
            <stop offset="1" stop-color="#4B0F18"/>
        </linearGradient>
        <linearGradient id="paint6_linear_1_1716" x1="3.7239" y1="44.3041" x2="0.884441" y2="33.5143" gradientUnits="userSpaceOnUse">
            <stop stop-color="#4A0C14"/>
            <stop offset="1" stop-color="#5B0D16"/>
        </linearGradient>
        <linearGradient id="paint7_linear_1_1716" x1="4.71226" y1="44.0031" x2="1.69828" y2="33.2552" gradientUnits="userSpaceOnUse">
            <stop stop-color="#4A0C14"/>
            <stop offset="1" stop-color="#5B0D16"/>
        </linearGradient>
        <linearGradient id="paint8_linear_1_1716" x1="36.6611" y1="58.5014" x2="25.3327" y2="59.0767" gradientUnits="userSpaceOnUse">
            <stop stop-color="#21090F"/>
            <stop offset="1" stop-color="#280910"/>
        </linearGradient>
        <linearGradient id="paint9_linear_1_1716" x1="36.7097" y1="57.821" x2="25.3406" y2="57.8183" gradientUnits="userSpaceOnUse">
            <stop stop-color="#21090F"/>
            <stop offset="1" stop-color="#280910"/>
        </linearGradient>
        <linearGradient id="paint10_linear_1_1716" x1="55.9684" y1="46.0076" x2="59.9434" y2="37.4893" gradientUnits="userSpaceOnUse">
            <stop stop-color="#280910"/>
            <stop offset="1" stop-color="#320A11"/>
        </linearGradient>
        <linearGradient id="paint11_linear_1_1716" x1="55.1393" y1="45.6297" x2="59.0813" y2="37.0958" gradientUnits="userSpaceOnUse">
            <stop stop-color="#280910"/>
            <stop offset="1" stop-color="#320A11"/>
        </linearGradient>
        <linearGradient id="paint12_linear_1_1716" x1="52.5617" y1="7.95951" x2="56.5369" y2="13.0706" gradientUnits="userSpaceOnUse">
            <stop stop-color="#5E0E17"/>
            <stop offset="1" stop-color="#550D16"/>
        </linearGradient>
        <linearGradient id="paint13_linear_1_1716" x1="52.1082" y1="8.26902" x2="55.9525" y2="13.4895" gradientUnits="userSpaceOnUse">
            <stop stop-color="#5E0E17"/>
            <stop offset="1" stop-color="#550D16"/>
        </linearGradient>
    </defs>
</svg>
