<svg width="221" height="207" viewBox="0 0 221 207" fill="none" xmlns="http://www.w3.org/2000/svg">
    <path d="M52.6277 149.189C52.6277 149.189 63.9769 154.157 66.1298 171.71C66.7072 176.871 64.1531 180.683 60.4957 184.308C56.7529 188.169 51.2108 188.182 47.8615 192.132C50.1761 188.392 49.501 183.941 53.4584 180.957C47.5501 182.861 44.5007 187.452 43.7104 193.448C43.0053 199.209 40.4513 203.021 34.1015 203.646C37.3365 201.039 36.243 197.448 36.0989 193.882C35.7518 198.069 32.5334 200.043 28.8693 200.897C24.4058 202.047 22.474 203.263 19.0601 206.657C20.8039 200.527 17.8034 197.203 25.2418 194.31C29.32 192.754 33.8291 189.864 30.5577 184.791C29.4534 193.708 22.006 190.9 15.9959 193.672C11.7469 195.698 12.6093 199.046 10.2301 202.23C7.85085 205.413 3.72039 205.938 0 205.92C6.22055 204.183 4.66236 197.175 6.1378 192.227C7.79218 186.491 15.3473 185.184 18.4903 180.042C15.6812 175.455 12.9234 181.004 11.7661 182.874C9.86984 185.753 7.42187 188.539 3.34527 187.008C12.9259 183.933 6.42045 172.363 13.3485 167.794C16.0069 166.043 22.7443 168.753 24.093 165.621C26.1972 160.847 17.899 163.322 16.1253 164.542C16.5893 161.942 18.6355 159.383 21.2002 158.183C24.4874 156.607 26.8069 158.726 29.6716 158.167C33.4897 157.476 33.8534 152.656 29.5813 152.544C27.999 152.503 24.6829 155.187 22.7676 155.77C25.1112 150.923 30.8505 146.402 36.1051 145.273C42.6338 143.861 47.1478 146.829 52.6277 149.189Z" fill="url(#paint0_linear_1_4473)"/>
    <path d="M55.7897 155.324C56.9301 156.606 56.8499 156.682 57.8972 158.348C60.1394 161.835 60.5833 166.881 57.2272 169.77C55.3118 171.366 53.058 170.919 51.0079 172.052C48.8406 173.222 48.7409 175.607 47.5858 177.442C47.4865 176.133 47.4914 175.094 47.198 173.82C47.0761 173.05 46.8805 172.201 47.1805 171.473C46.3527 172.849 46.2082 174.464 45.3033 175.84C44.1546 177.521 42.4382 178.042 40.5645 178.638C38.654 179.195 36.7964 179.406 34.7175 179.384C33.8705 179.375 32.7621 179.171 31.9792 179.47C30.959 179.921 30.5723 180.879 29.7734 181.564C30.2308 178.913 30.4026 177.568 33.2066 176.828C36.0877 176.089 36.2307 173.589 38.1157 171.8C36.4938 172.822 34.4325 173.3 33.3274 171.172C36.7473 172.286 38.1624 169.761 38.6326 166.803C39.1366 163.96 39.0486 161.458 41.3651 159.481C39.9423 159.427 39.2251 160.921 38.3428 161.758C37.3032 162.671 36.1322 163.043 34.7735 163.298C34.9339 163.146 35.1713 162.994 35.2547 162.841C35.7954 161.885 36.7852 161.241 37.3259 160.285C37.8265 159.367 38.1329 158.485 38.5196 157.527C39.293 155.611 41.2886 153.938 43.0276 152.879C45.9135 151.101 51.2038 151.696 54.6396 154.272L54.9748 154.545C55.2732 154.779 55.5314 155.051 55.7897 155.324Z" fill="#FFC929"/>
    <path d="M56.7753 156.369C58.0085 157.835 58.1865 159.025 58.1444 160.942C58.077 163.083 56.1051 164.595 54.7069 166.002C55.0476 165.359 54.9595 164.723 55.0363 164.011C54.2833 164.846 53.5762 164.518 52.7289 165.003C51.8399 165.527 51.367 166.615 50.5387 167.161C50.9264 166.234 49.8865 165.263 50.5579 164.426C49.6525 164.766 49.9746 165.899 49.3502 166.451C48.8092 166.924 47.621 167.133 47.022 167.462C47.0881 167.24 48.6673 165.022 47.4701 165.639C47.2427 165.775 47.0408 166.605 46.7082 166.881C46.4182 167.076 45.9868 167.206 45.6378 167.297C44.8376 167.498 44.0254 167.31 43.3031 167.675C42.4774 168.099 42.0725 168.883 41.6467 169.687C42.1077 168.211 41.8228 167.243 43.1096 166.261C43.7331 165.749 43.9876 165.308 44.4298 164.689C44.8085 164.17 45.3033 163.94 45.8035 163.465C44.2208 163.049 43.9177 164.775 42.6035 165.143C43.3511 164.554 43.1252 163.69 43.367 162.901C43.6287 162.133 44.2775 161.398 45.0397 161.074C45.5961 160.825 47.0401 161.053 46.9582 160.132C46.88 159.048 45.3366 159.634 44.8798 159.987C45.1624 159.2 45.8121 158.423 46.7347 158.227C47.5341 158.068 48.341 158.5 48.7286 157.573C48.0558 156.614 47.0962 157.564 46.1789 157.516C47.4875 156.474 48.0878 154.226 50.14 154.636C50.6884 154.755 52.0076 156.02 52.0898 155.063C52.1476 154.289 50.7724 153.716 50.1787 153.8C52.1744 153.065 55.0227 154.397 56.516 156.096L56.7753 156.369Z" fill="#F9F079"/>
    <path d="M45.4517 134.808C43.799 137.583 42.26 140.268 40.8197 142.842C39.3794 145.416 44.7412 153.946 50.279 159.768C55.7727 165.543 66.0441 173.522 68.692 172.217C71.34 170.912 74.0982 169.515 76.9584 168.012L45.4517 134.808Z" fill="url(#paint1_linear_1_4473)"/>
    <path d="M126.586 139.727C160.325 118.104 194.144 89.3568 209.921 48.6205L171.652 8.28906C130.149 21.9102 99.6619 54.1712 76.3025 86.7338L53.8744 120.918C51.8144 124.28 49.8429 127.529 47.9261 130.712L81.1801 165.758C84.4559 164.007 87.8118 162.211 91.2724 160.331L126.586 139.727ZM168.275 49.818C172.623 54.5827 172.46 61.8855 167.846 66.2644C163.236 70.6383 155.924 70.4277 151.396 65.8345C147.045 61.0698 147.219 53.7587 151.829 49.3848C156.444 45.0059 163.744 45.2248 168.275 49.818Z" fill="url(#paint2_linear_1_4473)"/>
    <path d="M94.6583 169.558L91.2716 160.332L126.585 139.728C125.322 146.441 123.302 173.112 123.302 173.112L83.1471 206.687L75.7667 198.909L94.6583 169.558Z" fill="url(#paint3_linear_1_4473)"/>
    <path d="M42.7929 88.2639C42.7929 88.2639 69.5285 87.6405 76.3013 86.7347L53.8733 120.919L44.8379 117.053L14.5369 134.379L7.1582 126.603L42.7929 88.2639Z" fill="url(#paint4_linear_1_4473)"/>
    <path d="M211.647 43.7255C215.981 30.7466 221.073 0.486087 220.648 0.0384665C220.22 -0.412664 189.824 3.18023 176.637 6.82928L211.647 43.7255Z" fill="url(#paint5_linear_1_4473)"/>
    <path d="M45.4514 134.808L76.9581 168.012L81.1798 165.758L47.9258 130.712L45.4514 134.808Z" fill="url(#paint6_linear_1_4473)"/>
    <path d="M171.651 8.28991L209.92 48.6214L211.647 43.7264L176.638 6.8302L171.651 8.28991Z" fill="url(#paint7_linear_1_4473)"/>
    <path d="M167.846 66.264C172.461 61.8851 172.623 54.5823 168.276 49.8176C163.744 45.2244 156.444 45.0055 151.829 49.3844C147.22 53.7583 147.045 61.0694 151.396 65.8341C155.924 70.4272 163.236 70.6379 167.846 66.264Z" fill="url(#paint8_linear_1_4473)"/>
    <defs>
        <linearGradient id="paint0_linear_1_4473" x1="1.05592e-06" y1="205.935" x2="66.0336" y2="144.378" gradientUnits="userSpaceOnUse">
            <stop stop-color="#F67C01"/>
            <stop offset="1" stop-color="#BB5E00"/>
        </linearGradient>
        <linearGradient id="paint1_linear_1_4473" x1="110.209" y1="45.4751" x2="173.661" y2="112.346" gradientUnits="userSpaceOnUse">
            <stop offset="0.213542" stop-color="#D2CECE"/>
            <stop offset="1" stop-color="#393535"/>
        </linearGradient>
        <linearGradient id="paint2_linear_1_4473" x1="110.209" y1="45.4751" x2="173.661" y2="112.346" gradientUnits="userSpaceOnUse">
            <stop offset="0.213542" stop-color="#D2CECE"/>
            <stop offset="1" stop-color="#393535"/>
        </linearGradient>
        <linearGradient id="paint3_linear_1_4473" x1="86.9601" y1="154.902" x2="117.364" y2="186.944" gradientUnits="userSpaceOnUse">
            <stop stop-color="#404040"/>
            <stop offset="1"/>
        </linearGradient>
        <linearGradient id="paint4_linear_1_4473" x1="59.1999" y1="125.645" x2="26.1521" y2="90.8166" gradientUnits="userSpaceOnUse">
            <stop/>
            <stop offset="1" stop-color="#7A7A7A"/>
        </linearGradient>
        <linearGradient id="paint5_linear_1_4473" x1="179.296" y1="1.10056" x2="220.275" y2="44.2883" gradientUnits="userSpaceOnUse">
            <stop stop-color="#8C8B8B"/>
            <stop offset="1"/>
        </linearGradient>
        <linearGradient id="paint6_linear_1_4473" x1="37.6218" y1="119.646" x2="93.1422" y2="178.158" gradientUnits="userSpaceOnUse">
            <stop offset="0.1875" stop-color="white"/>
            <stop offset="1" stop-color="#393535"/>
        </linearGradient>
        <linearGradient id="paint7_linear_1_4473" x1="167.114" y1="-0.57766" x2="222.634" y2="57.9348" gradientUnits="userSpaceOnUse">
            <stop offset="0.135417" stop-color="white"/>
            <stop offset="1" stop-color="#393535"/>
        </linearGradient>
        <linearGradient id="paint8_linear_1_4473" x1="168.048" y1="67.3703" x2="150.863" y2="49.2593" gradientUnits="userSpaceOnUse">
            <stop offset="0.0885417" stop-color="#212121"/>
            <stop offset="1" stop-color="#606060"/>
        </linearGradient>
    </defs>
</svg>
