<svg width="20" height="20" viewBox="0 0 20 20" xmlns="http://www.w3.org/2000/svg">
    <defs>
        <clipPath id="circleClipUsa">
            <circle cx="10" cy="10" r="10"/>
        </clipPath>
    </defs>
    <g clip-path="url(#circleClipUsa)">
        <!-- Stripes -->
        <rect width="20" height="1.54" fill="#B22234"/>
        <rect y="1.54" width="20" height="1.54" fill="#FFF"/>
        <rect y="3.08" width="20" height="1.54" fill="#B22234"/>
        <rect y="4.62" width="20" height="1.54" fill="#FFF"/>
        <rect y="6.16" width="20" height="1.54" fill="#B22234"/>
        <rect y="7.70" width="20" height="1.54" fill="#FFF"/>
        <rect y="9.24" width="20" height="1.54" fill="#B22234"/>
        <rect y="10.78" width="20" height="1.54" fill="#FFF"/>
        <rect y="12.32" width="20" height="1.54" fill="#B22234"/>
        <rect y="13.86" width="20" height="1.54" fill="#FFF"/>
        <rect y="15.40" width="20" height="1.54" fill="#B22234"/>
        <rect y="16.94" width="20" height="1.54" fill="#FFF"/>
        <rect y="18.48" width="20" height="1.54" fill="#B22234"/>
        <!-- Blue field with stars -->
        <rect width="8" height="7" fill="#3C3B6E"/>
        <!-- Simplified stars (white circles for simplicity) -->
        <circle cx="1.5" cy="1.5" r="0.3" fill="#FFF"/>
        <circle cx="3.5" cy="1.5" r="0.3" fill="#FFF"/>
        <circle cx="5.5" cy="1.5" r="0.3" fill="#FFF"/>
        <circle cx="7.5" cy="1.5" r="0.3" fill="#FFF"/>
        <circle cx="2.5" cy="3.5" r="0.3" fill="#FFF"/>
        <circle cx="4.5" cy="3.5" r="0.3" fill="#FFF"/>
        <circle cx="6.5" cy="3.5" r="0.3" fill="#FFF"/>
        <circle cx="1.5" cy="5.5" r="0.3" fill="#FFF"/>
        <circle cx="3.5" cy="5.5" r="0.3" fill="#FFF"/>
        <circle cx="5.5" cy="5.5" r="0.3" fill="#FFF"/>
        <circle cx="7.5" cy="5.5" r="0.3" fill="#FFF"/>
    </g>
</svg>
